<?xml version="1.0" encoding="utf-8"?>
<!-- Generator: Adobe Illustrator 21.0.0, SVG Export Plug-In . SVG Version: 6.00 Build 0)  -->
<svg version="1.1" xmlns="http://www.w3.org/2000/svg" xmlns:xlink="http://www.w3.org/1999/xlink" x="0px" y="0px"
	 viewBox="0 0 263.8 242.5" style="enable-background:new 0 0 263.8 242.5;" xml:space="preserve">
<style type="text/css">
	.st0{display:none;}
	.st1{display:inline;fill:#C1C1C1;}
	.st2{display:inline;fill:#6D6D6D;}
	.st3{display:inline;fill:#B2ACAA;}
	.st4{display:inline;fill:#0A0B10;}
	.st5{display:inline;fill:none;stroke:#848484;stroke-width:8;stroke-linecap:round;stroke-linejoin:round;stroke-miterlimit:10;}
	.st6{display:inline;fill:none;stroke:#7F7F7F;stroke-miterlimit:10;}
	.st7{display:inline;fill:#BCB8B7;}
	.st8{display:inline;fill:#403326;}
	.st9{display:inline;fill:#3C332F;}
	.st10{display:inline;fill:#B2B1B1;}
	.st11{display:inline;fill:#C5C1BD;}
	.st12{display:inline;fill:none;stroke:#9B9998;stroke-width:4;stroke-linejoin:round;stroke-miterlimit:10;}
	.st13{display:inline;fill:none;stroke:#B2B1B1;stroke-width:4;stroke-linejoin:round;stroke-miterlimit:10;}
	.st14{display:inline;fill:#C1BDBC;}
	.st15{display:inline;fill:#51200D;}
	.st16{display:inline;fill:#817972;}
	.st17{display:inline;}
	.st18{fill:#958F85;}
	.st19{display:inline;fill:#835149;}
	.st20{display:inline;fill:#828282;}
	.st21{display:inline;fill:#D3CBC9;}
	.st22{display:inline;fill:#887F7B;}
	.st23{display:inline;fill:#C1BCBC;}
	.st24{display:inline;fill:url(#SVGID_1_);}
	.st25{display:inline;fill:url(#SVGID_2_);}
	.st26{display:inline;fill:url(#SVGID_3_);}
	.st27{display:inline;fill:url(#SVGID_4_);}
	.st28{display:inline;fill:url(#SVGID_5_);}
	.st29{display:inline;fill:url(#SVGID_6_);}
	.st30{display:inline;fill:url(#SVGID_7_);}
	.st31{display:inline;fill:url(#SVGID_8_);}
	.st32{display:inline;fill:url(#SVGID_9_);}
	.st33{display:inline;fill:url(#SVGID_10_);}
	.st34{display:inline;fill:url(#SVGID_11_);}
	.st35{display:inline;fill:url(#SVGID_12_);}
	.st36{display:inline;fill:url(#SVGID_13_);}
	.st37{display:inline;fill:url(#SVGID_14_);}
	.st38{display:inline;fill:url(#SVGID_15_);}
	.st39{display:inline;fill:url(#SVGID_16_);}
	.st40{display:inline;fill:url(#SVGID_17_);}
	.st41{display:inline;fill:url(#SVGID_18_);}
	.st42{display:inline;fill:url(#SVGID_19_);}
	.st43{display:inline;fill:url(#SVGID_20_);}
	.st44{display:inline;fill:url(#SVGID_21_);}
	.st45{display:inline;fill:url(#SVGID_22_);}
	.st46{display:inline;fill:url(#SVGID_23_);}
	.st47{display:inline;fill:url(#SVGID_24_);}
	.st48{display:inline;fill:#A59E98;}
	.st49{display:inline;fill:url(#SVGID_25_);}
	.st50{fill:#A09895;}
	.st51{fill:#827D7D;}
	.st52{fill:#726E6E;}
	.st53{display:inline;fill:#939393;}
	.st54{display:inline;fill:#827D7D;}
	.st55{display:inline;fill:none;stroke:#C7C0B8;stroke-width:3.1111;stroke-linejoin:round;stroke-miterlimit:10;}
	.st56{display:inline;fill:#DB2916;}
	.st57{fill:#938C8A;}
	.st58{display:inline;fill:none;stroke:url(#SVGID_26_);stroke-width:8;stroke-miterlimit:10;}
	.st59{display:inline;fill:url(#SVGID_27_);}
	.st60{display:inline;fill:none;stroke:#53494D;stroke-width:7;stroke-miterlimit:10;}
	.st61{display:inline;fill:#9B9B9B;}
	.st62{display:inline;fill:#726E6E;}
	.st63{display:inline;fill:url(#SVGID_28_);}
	.st64{display:inline;fill:url(#SVGID_29_);}
	.st65{fill:#939393;}
	.st66{fill:#6D6D6D;}
	.st67{fill:#C1C1C1;}
	.st68{fill:#9B9B9B;}
	.st69{display:inline;fill:url(#SVGID_30_);}
	.st70{display:inline;fill:url(#SVGID_31_);}
	.st71{display:inline;fill:url(#SVGID_32_);}
	.st72{display:inline;fill:url(#SVGID_33_);}
	.st73{display:inline;fill:url(#SVGID_34_);}
	.st74{display:inline;fill:url(#SVGID_35_);}
	.st75{display:inline;fill:url(#SVGID_36_);}
	.st76{display:inline;fill:url(#SVGID_37_);}
	.st77{display:inline;fill:url(#SVGID_38_);}
	.st78{display:inline;fill:url(#SVGID_39_);}
	.st79{display:inline;fill:url(#SVGID_40_);}
	.st80{display:inline;fill:none;stroke:url(#SVGID_41_);stroke-width:8;stroke-miterlimit:10;}
	.st81{display:inline;fill:url(#SVGID_42_);}
</style>
<g id="wzór" class="st0">
</g>
<g id="kopie_x2F_zapas" class="st0">
</g>
<g id="spod" class="st0">
	<circle class="st3" cx="126.8" cy="130.7" r="22.6"/>
</g>
<g id="rowa" class="st0">
	<g id="szprychy">
	</g>
	<g id="wheels">
		<path class="st8" d="M-279.2-204c-163.5,0-296,132.2-296,295.3s132.5,295.3,296,295.3s296-132.2,296-295.3S-115.7-204-279.2-204z
			 M-279.2,358.3c-147.8,0-267.7-119.5-267.7-267s119.8-267,267.7-267S-11.5-56.1-11.5,91.3S-131.3,358.3-279.2,358.3z"/>
	</g>
	<g id="sit">
	</g>
	<g id="steer">
	</g>
	<g id="blotniki">
		<linearGradient id="SVGID_1_" gradientUnits="userSpaceOnUse" x1="-599.3605" y1="-43.5822" x2="37.6782" y2="-43.5822">
			<stop  offset="0.5753" style="stop-color:#000000"/>
			<stop  offset="0.6659" style="stop-color:#070707"/>
			<stop  offset="0.8002" style="stop-color:#1B1B1B"/>
			<stop  offset="0.961" style="stop-color:#3C3C3C"/>
			<stop  offset="1" style="stop-color:#454545"/>
		</linearGradient>
		<path class="st24" d="M-286.5-232.1c-155,0-284.1,110.5-312.9,257.1l24.6-4.8C-546.3-113.6-426.5-214-283.2-214
			c164.6,0,303.3,137,303.3,300.3c0,15-1.1,29.8-3.3,44.2l16.3,14.4c2.9-17.4,4.5-35.3,4.5-53.5C37.7-84.7-110.3-232.1-286.5-232.1z
			"/>
	</g>
	<g id="frame">
		<linearGradient id="SVGID_2_" gradientUnits="userSpaceOnUse" x1="321.8893" y1="-46.9815" x2="300.6606" y2="-68.2103">
			<stop  offset="0.5753" style="stop-color:#000000"/>
			<stop  offset="0.6659" style="stop-color:#070707"/>
			<stop  offset="0.8002" style="stop-color:#1B1B1B"/>
			<stop  offset="0.961" style="stop-color:#3C3C3C"/>
			<stop  offset="1" style="stop-color:#454545"/>
		</linearGradient>
		<polygon class="st25" points="494,-228.2 391.5,-126.3 278.3,-8.3 186,87.7 144.3,130.9 129.3,112.7 162.5,80.4 284.5,-47.3 
			370.3,-135.8 426.5,-194.1 479.4,-244.9 		"/>
		<linearGradient id="SVGID_3_" gradientUnits="userSpaceOnUse" x1="-46.4896" y1="-80.5456" x2="139.9165" y2="-80.5456">
			<stop  offset="0.5753" style="stop-color:#000000"/>
			<stop  offset="0.6659" style="stop-color:#070707"/>
			<stop  offset="0.8002" style="stop-color:#1B1B1B"/>
			<stop  offset="0.961" style="stop-color:#3C3C3C"/>
			<stop  offset="1" style="stop-color:#454545"/>
		</linearGradient>
		<path class="st26" d="M-27.6-292l49.9,122.9l117.6,291.4l-20.5,8.6L84,43.9L31-89l-63.5-157.9l-14-37
			C-46.5-283.9-40.2-289.8-27.6-292z"/>
		<path class="st4" d="M-283,83.3c0,0,10,8.3,0,16.7c0,0-1.7,1.3-5.7,1.3v6.3c0,0,7,3,16-3c0,0,22.3-0.7,46,0
			c23.7,0.7,348.7,34,348.7,34l2.3-23.3l-79-4.3l-115.7-7.3l-94.3-7.3l-26.3-1.3c0,0-49.3-4.7-51.3-6.7S-283,83.3-283,83.3z"/>
	</g>
	<g id="rearPedal">
		<g class="st17">
			<path class="st50" d="M43.1,241.8l-42-34c-1.3-1-1.4-3-0.3-4.3l8.9-11c0.7-0.8,1.7-1.3,2.8-1.2l12.2,1.3c0.6,0.1,1.1,0.3,1.5,0.6
				L66.6,226c1.3,1,1.4,3,0.3,4.3l-8.7,10.8c-0.6,0.7-1.5,1.2-2.4,1.2l-10.9,0.2C44.2,242.5,43.6,242.2,43.1,241.8z"/>
			<path class="st51" d="M43.1,241.8c0.5,0.4,1.2,0.6,1.9,0.6l10.9-0.2c0.9,0,1.8-0.5,2.4-1.2l8.7-10.8c1.1-1.3,0.7-2.2,0.7-2.2l0,0
				l-13.4-0.1L43.1,241.8z"/>
			<path class="st52" d="M9.7,192.5c0.7-0.8,1.7-1.3,2.8-1.2l12.2,1.3c0.6,0.1,1.1,0.3,1.5,0.6L66.6,226c1.3,1,1.4,3,0.3,4.3l0,0
				l-10.8-0.9L9.7,192.5z"/>
		</g>
		<path class="st53" d="M136.4,121.5l-0.8-0.8c-4.1-4.1-10.9-4.2-15,0l-6.6,6.5c-2.6,2.5-3.5,6.1-2.9,9.4l-79.7,72.5
			c-0.1,0.1-0.1,0.1-0.1,0.2c-0.6-0.1-1.2-0.2-1.9-0.2c-6.2,0-11.3,5-11.3,11.3s5,11.3,11.3,11.3s11.3-5,11.3-11.3
			c0-0.2,0-0.4,0-0.6c0.3-0.1,0.6-0.3,0.8-0.6l79.8-72.5c0.2-0.2,0.3-0.3,0.4-0.5c3,0.2,6-0.8,8.2-3l6.6-6.5
			C140.5,132.4,140.5,125.6,136.4,121.5z M29.3,226c-3.1,0-5.7-2.5-5.7-5.7c0-3.1,2.5-5.7,5.7-5.7s5.7,2.5,5.7,5.7
			C35,223.5,32.4,226,29.3,226z M126.5,138.1c-4.1,0-7.5-3.4-7.5-7.5c0-4.1,3.4-7.5,7.5-7.5c4.1,0,7.5,3.4,7.5,7.5
			C134,134.8,130.7,138.1,126.5,138.1z"/>
		<circle class="st54" cx="29.3" cy="220.3" r="4.3"/>
	</g>
	<g id="dodatki">
	</g>
	<g id="mainGear">
		<path class="st2" d="M204.4,124.9l5.1-2.9c-0.1-1.2-0.3-2.4-0.5-3.6l-5.7-1.5c-0.1-0.7-0.2-1.3-0.4-2l4.7-3.5
			c-0.3-1.2-0.6-2.3-0.9-3.5l-5.8-0.7c-0.2-0.7-0.4-1.3-0.7-1.9l4.2-4.1c-0.4-1.1-0.9-2.2-1.3-3.3l-5.9,0.1
			c-0.3-0.6-0.6-1.3-0.9-1.9l3.6-4.7c-0.6-1-1.1-2-1.7-3l-5.8,0.8c-0.4-0.6-0.8-1.2-1.2-1.9l3-5c-0.7-0.9-1.4-1.9-2.1-2.8l-5.5,1.5
			c-0.5-0.6-1-1.2-1.5-1.8l2.2-5.3c-0.8-0.8-1.6-1.7-2.4-2.5l-5.2,2.2c-0.6-0.5-1.2-1.1-1.8-1.6l1.5-5.5c-0.9-0.7-1.8-1.4-2.7-2.1
			l-4.8,2.8c-0.7-0.5-1.4-1-2.1-1.4l0.8-5.5c-1-0.6-2-1.1-2.9-1.7l-4.3,3.4c-0.8-0.4-1.5-0.8-2.3-1.2l0.1-5.5
			c-1-0.5-2.1-0.9-3.1-1.3L154,58c-0.8-0.3-1.7-0.6-2.5-0.9l-0.7-5.4c-1.1-0.3-2.2-0.6-3.3-0.9l-3.2,4.3c-0.9-0.2-1.8-0.4-2.7-0.5
			l-1.4-5.2c-1.1-0.2-2.2-0.3-3.4-0.4l-2.6,4.7c-0.9-0.1-1.8-0.1-2.7-0.2l-2-4.9c-0.5,0-1,0-1.6,0c-0.6,0-1.2,0-1.9,0l-2,4.9
			c-0.9,0-1.8,0.1-2.7,0.2l-2.6-4.7c-1.1,0.1-2.3,0.3-3.4,0.4l-1.4,5.2c-0.9,0.2-1.8,0.3-2.6,0.5l-3.2-4.3c-1.1,0.3-2.2,0.6-3.3,0.9
			l-0.7,5.4c-0.8,0.3-1.7,0.5-2.5,0.8L98,54.2c-1.1,0.4-2.2,0.9-3.2,1.4l0.1,5.5c-0.8,0.4-1.5,0.8-2.2,1.2l-4.3-3.4
			c-1,0.6-2,1.2-3,1.8l0.8,5.5c-0.7,0.4-1.3,0.9-2,1.4l-4.8-2.8c-1,0.7-1.9,1.4-2.8,2.2l1.5,5.4c-0.6,0.5-1.1,1-1.7,1.5l-5.2-2.2
			c-0.9,0.8-1.7,1.7-2.5,2.6l2.2,5.3c-0.5,0.5-0.9,1.1-1.4,1.6l-5.5-1.5c-0.8,1-1.5,1.9-2.2,2.9l2.9,5c-0.4,0.6-0.7,1.1-1.1,1.7
			l-5.7-0.8c-0.6,1.1-1.3,2.1-1.8,3.2l3.6,4.6c-0.3,0.6-0.6,1.1-0.8,1.7l-5.8-0.1c-0.5,1.2-1,2.3-1.4,3.5l4.2,4.1
			c-0.2,0.6-0.4,1.2-0.6,1.7l-5.8,0.7c-0.4,1.2-0.7,2.5-1,3.7l4.7,3.5l-0.3,1.8l-5.6,1.5c-0.2,1.3-0.4,2.6-0.5,3.8l5.1,2.8l-0.1,1.9
			l-5.4,2.2c0,0.5,0,0.9,0,1.4c0,0.9,0,1.7,0.1,2.6l5.3,2.2l0.1,1.7l-4.9,2.8c0.1,1.3,0.3,2.6,0.5,3.9l5.5,1.4c0,0,0,0,0,0
			c0.1,0.6,0.2,1.2,0.3,1.8l-4.4,3.3c0.3,1.3,0.7,2.6,1.1,3.9l5.4,0.7c0.2,0.6,0.4,1.2,0.6,1.8l-3.9,3.8c0.5,1.3,1,2.5,1.6,3.8
			l5.3-0.1c0.3,0.6,0.6,1.2,0.9,1.8l-3.2,4.2c0.7,1.2,1.4,2.4,2.1,3.6l5.1-0.7c0.4,0.6,0.7,1.2,1.1,1.8l-2.6,4.4
			c0.8,1.1,1.7,2.2,2.5,3.3l4.8-1.3c0.5,0.6,1,1.1,1.4,1.7l-1.9,4.5c1,1,2,2,3,3l4.4-1.9c0.6,0.5,1.2,1.1,1.8,1.6l-1.3,4.5
			c1.1,0.9,2.2,1.7,3.3,2.6l3.9-2.3c0.7,0.5,1.4,1,2.1,1.4l-0.6,4.5c1.2,0.7,2.4,1.4,3.6,2.1l3.5-2.7c0.8,0.4,1.5,0.8,2.3,1.2l0,4.3
			c1.3,0.6,2.6,1.1,3.9,1.6l3-3c0.9,0.3,1.7,0.6,2.6,0.9l0.5,4.2c1.3,0.4,2.7,0.8,4.1,1.1l2.5-3.3c0.9,0.2,1.8,0.4,2.7,0.6l1,4
			c1.4,0.2,2.8,0.4,4.2,0.6l2-3.6c0.9,0.1,1.9,0.2,2.8,0.2l1.5,3.8c0.8,0,1.5,0.1,2.3,0.1c0.7,0,1.3,0,2,0l1.5-3.8
			c1,0,1.9-0.1,2.9-0.2l2,3.6c1.4-0.1,2.8-0.3,4.1-0.5l1.1-4.1c0.9-0.2,1.9-0.4,2.8-0.6l2.5,3.4c1.4-0.3,2.7-0.7,4-1.1l0.5-4.2
			c0.9-0.3,1.8-0.6,2.7-0.9l3,3.1c1.3-0.5,2.6-1,3.8-1.6l0-4.4c0.8-0.4,1.6-0.8,2.4-1.2l3.5,2.7c1.2-0.6,2.4-1.3,3.6-2l-0.6-4.5
			c0.7-0.5,1.4-1,2.2-1.5l4,2.3c1.1-0.8,2.2-1.6,3.2-2.5l-1.3-4.6c0.6-0.5,1.3-1.1,1.9-1.7l4.4,1.9c1-0.9,1.9-1.9,2.9-2.8l-1.9-4.5
			c0.5-0.6,1-1.2,1.6-1.8l4.8,1.3c0.8-1,1.6-2.1,2.4-3.1l-2.6-4.4c0.4-0.6,0.8-1.3,1.2-1.9l5.2,0.7c0.7-1.1,1.3-2.2,2-3.4l-3.3-4.2
			c0.3-0.6,0.6-1.3,1-2l5.4,0.1c0.5-1.2,1-2.4,1.5-3.6l-3.9-3.8c0.2-0.7,0.5-1.3,0.7-2l5.5-0.7c0.4-1.2,0.7-2.4,1-3.7l-4.5-3.4
			c0.1-0.7,0.2-1.3,0.4-2l5.5-1.4c0.2-1.2,0.4-2.5,0.5-3.7l-5-2.8c0-0.7,0.1-1.3,0.1-2l5.4-2.2c0-0.8,0.1-1.6,0.1-2.3
			c0-0.5,0-0.9,0-1.4l-5.4-2.2C204.5,126.2,204.4,125.6,204.4,124.9z M128.4,206.7c-41.9,0-75.8-33.9-75.8-75.8s33.9-75.8,75.8-75.8
			s75.8,33.9,75.8,75.8S170.2,206.7,128.4,206.7z"/>
		<path class="st1" d="M205.3,130.2c0-42.3-34.3-76.5-76.5-76.5c-42.3,0-76.5,34.3-76.5,76.5s34.3,76.5,76.5,76.5
			C171,206.8,205.3,172.5,205.3,130.2z M182,180.3c-5,5.6-16.1,16.3-30.9,20.2c-1.6,0.4-2.8-1.3-1.9-2.7c2.9-4.3,6.5-12.6,5.1-25.5
			c-0.2-1.6,1.7-2.5,2.9-1.5c4.1,3.5,11.5,7.8,23.3,6.5C182,177.3,183,179.1,182,180.3z M174.7,172.5c-13.3,0-24-10.8-24-24
			s10.8-24,24-24c13.3,0,24,10.8,24,24S188,172.5,174.7,172.5z M192.9,96.6c3.6,6.4,9.9,19.8,8.8,34.7c-0.1,1.5-2.1,2.1-3,0.9
			c-3.1-4-9.5-9.9-21.7-12.7c-1.5-0.3-1.8-2.3-0.5-3.1c4.5-2.6,10.7-8.1,13.3-19.3C190.1,95.6,192.1,95.2,192.9,96.6z M184.5,92.1
			c0,13.3-10.8,24-24,24c-13.3,0-24-10.8-24-24c0-13.3,10.8-24,24-24C173.8,68.1,184.5,78.9,184.5,92.1z M114.5,58.3
			c7.3-1.8,22.5-4.2,36.9,1.1c1.5,0.6,1.5,2.7,0,3.3c-4.8,1.9-12.6,6.6-18.8,17.9c-0.8,1.4-2.8,1.1-3.2-0.4c-1.3-5.2-5-13-15.4-18.7
			C112.6,60.8,112.9,58.7,114.5,58.3z M102.1,64.8c13.3,0,24,10.8,24,24c0,13.3-10.8,24-24,24c-13.3,0-24-10.8-24-24
			C78.1,75.5,88.9,64.8,102.1,64.8z M69.2,87.3c1-1.2,2.9-0.5,3,1c0.2,5,2,13.6,10.3,22.9c1,1.1,0.1,2.9-1.4,2.8
			c-5.2-0.5-13.5,0.4-22,8c-1.2,1-3,0.1-2.8-1.4C57,113.3,59.7,98.7,69.2,87.3z M56.6,141.9c0-13.3,10.8-24,24-24
			c13.3,0,24,10.8,24,24c0,13.3-10.8,24-24,24C67.4,166,56.6,155.2,56.6,141.9z M97.1,196c-13.7-5.8-22.8-17.5-26.8-23.6
			c-0.9-1.3,0.3-2.9,1.9-2.6c11.1,2.8,18.9-0.2,23.2-3c1.3-0.8,2.9,0.3,2.6,1.8c-3.1,12.1-0.7,20.5,1.4,25.1
			C99.9,195.2,98.5,196.6,97.1,196z M101.7,179.4c0-13.3,10.8-24,24-24s24,10.8,24,24c0,13.3-10.8,24-24,24S101.7,192.7,101.7,179.4
			z"/>
	</g>
	<g id="chain">
		<path class="st60" d="M125.4,47.3c-1.6,0-3.2,0.1-4.7,0.1l-299.6,8.8l0,0l-97.5,2.9c-26.7,1.2-43,16.9-38.8,35.3
			c3.8,16.4,11.8,22.6,86.1,47.1c19.8,6.5,68,23.9,93.3,30c62.7,15.1,107.6,33.6,261.2,39.1c48.8,1.7,84.4-33.3,84.4-79.6
			S172,47.3,125.4,47.3z"/>
	</g>
	<g id="frontPedal">
		<circle class="st54" cx="126.6" cy="130.6" r="5.7"/>
		<g class="st17">
			<path class="st50" d="M250.2,54.2L224,7.9c-0.3-0.5-0.7-0.9-1.1-1.2l-7.1-6.3c-0.9-0.5-2-0.5-2.9,0L201,6.7c-1.4,0.8-2,2.6-1.2,4
				l9.1,16.9c-1.7,3.9-1,9.4,2.1,14.2c2.5,3.8,6,6.4,9.4,7.3l4.9,9.1c0.3,0.6,0.8,1.1,1.4,1.3l9.8,4.2c0.8,0.4,1.8,0.3,2.6-0.1
				l9.8-5.5C250.4,57.4,250.9,55.6,250.2,54.2z"/>
			<path class="st51" d="M225.9,59c0.3,0.6,0.3,0.3,0.9,0.6l9.8,4.2c0.8,0.4,1.8,0.3,2.6-0.1l9.9-5.4c1.4-0.8,1.7-1.7,1.7-1.7
				l0.1-0.6l-10.1-5.2L225.9,59z"/>
		</g>
		<path class="st61" d="M217.6,50.1c-3-1.2-5.9-3.5-8-6.8c-0.7-1.1-1.3-2.3-1.8-3.4l-75.2,75.2c-3.3-0.6-6.9,0.4-9.4,2.9l-6.5,6.6
			c-4.1,4.1-4.1,10.9,0,15l0.8,0.8c4.1,4.1,10.9,4.1,15,0l6.5-6.6c2.2-2.2,3.3-5.3,3.1-8.2c0.2-0.1,0.4-0.3,0.5-0.4L217.6,50.1z
			 M126.6,138.1c-4.1,0-7.5-3.4-7.5-7.5c0-4.1,3.4-7.5,7.5-7.5c4.1,0,7.5,3.4,7.5,7.5C134.1,134.7,130.7,138.1,126.6,138.1z"/>
		<path class="st62" d="M250.5,53.9l-9.9-17.5c0.2-4.9,1.1-8.3-1.2-12.3c-3.1-5.4-4.9-6.3-10.5-8.4l-5.4-9.5
			c-0.3-0.5-0.6-0.9-1.1-1.2l-6.6-4.5c-0.8-0.6-2.1-0.4-2.9,0l11.3,20.4c2.8,0.8,5.8,3.3,7.9,7c2.2,3.9,2.9,8,1.9,10.8l6.8,12.2l9,7
			C251,57.1,251.3,55.4,250.5,53.9z"/>
		<ellipse class="st54" cx="220.5" cy="34.9" rx="8.7" ry="8.7"/>
	</g>
</g>
<g id="ANIMACJA">
	<g id="staticRear" class="st0">
		<linearGradient id="SVGID_4_" gradientUnits="userSpaceOnUse" x1="-46.4896" y1="-80.5456" x2="139.9165" y2="-80.5456">
			<stop  offset="0.5753" style="stop-color:#000000"/>
			<stop  offset="0.6659" style="stop-color:#070707"/>
			<stop  offset="0.8002" style="stop-color:#1B1B1B"/>
			<stop  offset="0.961" style="stop-color:#3C3C3C"/>
			<stop  offset="1" style="stop-color:#454545"/>
		</linearGradient>
		<path class="st27" d="M-27.6-292l49.9,122.9l117.6,291.4l-20.5,8.6L84,43.9L31-89l-63.5-157.9l-14-37
			C-46.5-283.9-40.2-289.8-27.6-292z"/>
		<linearGradient id="SVGID_5_" gradientUnits="userSpaceOnUse" x1="321.8893" y1="-46.9815" x2="300.6606" y2="-68.2103">
			<stop  offset="0.5753" style="stop-color:#000000"/>
			<stop  offset="0.6659" style="stop-color:#070707"/>
			<stop  offset="0.8002" style="stop-color:#1B1B1B"/>
			<stop  offset="0.961" style="stop-color:#3C3C3C"/>
			<stop  offset="1" style="stop-color:#454545"/>
		</linearGradient>
		<polygon class="st28" points="494,-228.2 391.5,-126.3 278.3,-8.3 186,87.7 144.3,130.9 129.3,112.7 162.5,80.4 284.5,-47.3 
			370.3,-135.8 426.5,-194.1 479.4,-244.9 		"/>
		<path class="st4" d="M-283,83.3c0,0,10,8.3,0,16.7c0,0-1.7,1.3-5.7,1.3v6.3c0,0,7,3,16-3c0,0,22.3-0.7,46,0
			c23.7,0.7,348.7,34,348.7,34l2.3-23.3l-79-4.3l-115.7-7.3l-94.3-7.3l-26.3-1.3c0,0-49.3-4.7-51.3-6.7S-283,83.3-283,83.3z"/>
	</g>
	<g id="pedalsAndChain">
		<g>
			<path class="st50" d="M43.1,241.8l-42-34c-1.3-1-1.4-3-0.3-4.3l8.9-11c0.7-0.8,1.7-1.3,2.8-1.2l12.2,1.3c0.6,0.1,1.1,0.3,1.5,0.6
				L66.6,226c1.3,1,1.4,3,0.3,4.3l-8.7,10.8c-0.6,0.7-1.5,1.2-2.4,1.2l-10.9,0.2C44.2,242.5,43.6,242.2,43.1,241.8z"/>
			<path class="st51" d="M43.1,241.8c0.5,0.4,1.2,0.6,1.9,0.6l10.9-0.2c0.9,0,1.8-0.5,2.4-1.2l8.7-10.8c1.1-1.3,0.7-2.2,0.7-2.2l0,0
				l-13.4-0.1L43.1,241.8z"/>
			<path class="st52" d="M9.7,192.5c0.7-0.8,1.7-1.3,2.8-1.2l12.2,1.3c0.6,0.1,1.1,0.3,1.5,0.6L66.6,226c1.3,1,1.4,3,0.3,4.3l0,0
				l-10.8-0.9L9.7,192.5z"/>
		</g>
		<path class="st65" d="M136.4,121.5l-0.8-0.8c-4.1-4.1-10.9-4.2-15,0l-6.6,6.5c-2.6,2.5-3.5,6.1-2.9,9.4l-79.7,72.5
			c-0.1,0.1-0.1,0.1-0.1,0.2c-0.6-0.1-1.2-0.2-1.9-0.2c-6.2,0-11.3,5-11.3,11.3s5,11.3,11.3,11.3s11.3-5,11.3-11.3
			c0-0.2,0-0.4,0-0.6c0.3-0.1,0.6-0.3,0.8-0.6l79.8-72.5c0.2-0.2,0.3-0.3,0.4-0.5c3,0.2,6-0.8,8.2-3l6.6-6.5
			C140.5,132.4,140.5,125.6,136.4,121.5z M29.3,226c-3.1,0-5.7-2.5-5.7-5.7c0-3.1,2.5-5.7,5.7-5.7s5.7,2.5,5.7,5.7
			C35,223.5,32.4,226,29.3,226z M126.5,138.1c-4.1,0-7.5-3.4-7.5-7.5c0-4.1,3.4-7.5,7.5-7.5c4.1,0,7.5,3.4,7.5,7.5
			C134,134.8,130.7,138.1,126.5,138.1z"/>
		<circle class="st51" cx="29.3" cy="220.3" r="4.3"/>
		<path class="st66" d="M204.4,124.9l5.1-2.9c-0.1-1.2-0.3-2.4-0.5-3.6l-5.7-1.5c-0.1-0.7-0.2-1.3-0.4-2l4.7-3.5
			c-0.3-1.2-0.6-2.3-0.9-3.5l-5.8-0.7c-0.2-0.7-0.4-1.3-0.7-1.9l4.2-4.1c-0.4-1.1-0.9-2.2-1.3-3.3l-5.9,0.1
			c-0.3-0.6-0.6-1.3-0.9-1.9l3.6-4.7c-0.6-1-1.1-2-1.7-3l-5.8,0.8c-0.4-0.6-0.8-1.2-1.2-1.9l3-5c-0.7-0.9-1.4-1.9-2.1-2.8l-5.5,1.5
			c-0.5-0.6-1-1.2-1.5-1.8l2.2-5.3c-0.8-0.8-1.6-1.7-2.4-2.5l-5.2,2.2c-0.6-0.5-1.2-1.1-1.8-1.6l1.5-5.5c-0.9-0.7-1.8-1.4-2.7-2.1
			l-4.8,2.8c-0.7-0.5-1.4-1-2.1-1.4l0.8-5.5c-1-0.6-2-1.1-2.9-1.7l-4.3,3.4c-0.8-0.4-1.5-0.8-2.3-1.2l0.1-5.5
			c-1-0.5-2.1-0.9-3.1-1.3L154,58c-0.8-0.3-1.7-0.6-2.5-0.9l-0.7-5.4c-1.1-0.3-2.2-0.6-3.3-0.9l-3.2,4.3c-0.9-0.2-1.8-0.4-2.7-0.5
			l-1.4-5.2c-1.1-0.2-2.2-0.3-3.4-0.4l-2.6,4.7c-0.9-0.1-1.8-0.1-2.7-0.2l-2-4.9c-0.5,0-1,0-1.6,0c-0.6,0-1.2,0-1.9,0l-2,4.9
			c-0.9,0-1.8,0.1-2.7,0.2l-2.6-4.7c-1.1,0.1-2.3,0.3-3.4,0.4l-1.4,5.2c-0.9,0.2-1.8,0.3-2.6,0.5l-3.2-4.3c-1.1,0.3-2.2,0.6-3.3,0.9
			l-0.7,5.4c-0.8,0.3-1.7,0.5-2.5,0.8L98,54.2c-1.1,0.4-2.2,0.9-3.2,1.4l0.1,5.5c-0.8,0.4-1.5,0.8-2.2,1.2l-4.3-3.4
			c-1,0.6-2,1.2-3,1.8l0.8,5.5c-0.7,0.4-1.3,0.9-2,1.4l-4.8-2.8c-1,0.7-1.9,1.4-2.8,2.2l1.5,5.4c-0.6,0.5-1.1,1-1.7,1.5l-5.2-2.2
			c-0.9,0.8-1.7,1.7-2.5,2.6l2.2,5.3c-0.5,0.5-0.9,1.1-1.4,1.6l-5.5-1.5c-0.8,1-1.5,1.9-2.2,2.9l2.9,5c-0.4,0.6-0.7,1.1-1.1,1.7
			l-5.7-0.8c-0.6,1.1-1.3,2.1-1.8,3.2l3.6,4.6c-0.3,0.6-0.6,1.1-0.8,1.7l-5.8-0.1c-0.5,1.2-1,2.3-1.4,3.5l4.2,4.1
			c-0.2,0.6-0.4,1.2-0.6,1.7l-5.8,0.7c-0.4,1.2-0.7,2.5-1,3.7l4.7,3.5l-0.3,1.8l-5.6,1.5c-0.2,1.3-0.4,2.6-0.5,3.8l5.1,2.8l-0.1,1.9
			l-5.4,2.2c0,0.5,0,0.9,0,1.4c0,0.9,0,1.7,0.1,2.6l5.3,2.2l0.1,1.7l-4.9,2.8c0.1,1.3,0.3,2.6,0.5,3.9l5.5,1.4c0,0,0,0,0,0
			c0.1,0.6,0.2,1.2,0.3,1.8l-4.4,3.3c0.3,1.3,0.7,2.6,1.1,3.9l5.4,0.7c0.2,0.6,0.4,1.2,0.6,1.8l-3.9,3.8c0.5,1.3,1,2.5,1.6,3.8
			l5.3-0.1c0.3,0.6,0.6,1.2,0.9,1.8l-3.2,4.2c0.7,1.2,1.4,2.4,2.1,3.6l5.1-0.7c0.4,0.6,0.7,1.2,1.1,1.8l-2.6,4.4
			c0.8,1.1,1.7,2.2,2.5,3.3l4.8-1.3c0.5,0.6,1,1.1,1.4,1.7l-1.9,4.5c1,1,2,2,3,3l4.4-1.9c0.6,0.5,1.2,1.1,1.8,1.6l-1.3,4.5
			c1.1,0.9,2.2,1.7,3.3,2.6l3.9-2.3c0.7,0.5,1.4,1,2.1,1.4l-0.6,4.5c1.2,0.7,2.4,1.4,3.6,2.1l3.5-2.7c0.8,0.4,1.5,0.8,2.3,1.2l0,4.3
			c1.3,0.6,2.6,1.1,3.9,1.6l3-3c0.9,0.3,1.7,0.6,2.6,0.9l0.5,4.2c1.3,0.4,2.7,0.8,4.1,1.1l2.5-3.3c0.9,0.2,1.8,0.4,2.7,0.6l1,4
			c1.4,0.2,2.8,0.4,4.2,0.6l2-3.6c0.9,0.1,1.9,0.2,2.8,0.2l1.5,3.8c0.8,0,1.5,0.1,2.3,0.1c0.7,0,1.3,0,2,0l1.5-3.8
			c1,0,1.9-0.1,2.9-0.2l2,3.6c1.4-0.1,2.8-0.3,4.1-0.5l1.1-4.1c0.9-0.2,1.9-0.4,2.8-0.6l2.5,3.4c1.4-0.3,2.7-0.7,4-1.1l0.5-4.2
			c0.9-0.3,1.8-0.6,2.7-0.9l3,3.1c1.3-0.5,2.6-1,3.8-1.6l0-4.4c0.8-0.4,1.6-0.8,2.4-1.2l3.5,2.7c1.2-0.6,2.4-1.3,3.6-2l-0.6-4.5
			c0.7-0.5,1.4-1,2.2-1.5l4,2.3c1.1-0.8,2.2-1.6,3.2-2.5l-1.3-4.6c0.6-0.5,1.3-1.1,1.9-1.7l4.4,1.9c1-0.9,1.9-1.9,2.9-2.8l-1.9-4.5
			c0.5-0.6,1-1.2,1.6-1.8l4.8,1.3c0.8-1,1.6-2.1,2.4-3.1l-2.6-4.4c0.4-0.6,0.8-1.3,1.2-1.9l5.2,0.7c0.7-1.1,1.3-2.2,2-3.4l-3.3-4.2
			c0.3-0.6,0.6-1.3,1-2l5.4,0.1c0.5-1.2,1-2.4,1.5-3.6l-3.9-3.8c0.2-0.7,0.5-1.3,0.7-2l5.5-0.7c0.4-1.2,0.7-2.4,1-3.7l-4.5-3.4
			c0.1-0.7,0.2-1.3,0.4-2l5.5-1.4c0.2-1.2,0.4-2.5,0.5-3.7l-5-2.8c0-0.7,0.1-1.3,0.1-2l5.4-2.2c0-0.8,0.1-1.6,0.1-2.3
			c0-0.5,0-0.9,0-1.4l-5.4-2.2C204.5,126.2,204.4,125.6,204.4,124.9z M128.4,206.7c-41.9,0-75.8-33.9-75.8-75.8s33.9-75.8,75.8-75.8
			s75.8,33.9,75.8,75.8S170.2,206.7,128.4,206.7z"/>
		<path class="st67" d="M205.3,130.2c0-42.3-34.3-76.5-76.5-76.5c-42.3,0-76.5,34.3-76.5,76.5s34.3,76.5,76.5,76.5
			C171,206.8,205.3,172.5,205.3,130.2z M182,180.3c-5,5.6-16.1,16.3-30.9,20.2c-1.6,0.4-2.8-1.3-1.9-2.7c2.9-4.3,6.5-12.6,5.1-25.5
			c-0.2-1.6,1.7-2.5,2.9-1.5c4.1,3.5,11.5,7.8,23.3,6.5C182,177.3,183,179.1,182,180.3z M174.7,172.5c-13.3,0-24-10.8-24-24
			s10.8-24,24-24c13.3,0,24,10.8,24,24S188,172.5,174.7,172.5z M192.9,96.6c3.6,6.4,9.9,19.8,8.8,34.7c-0.1,1.5-2.1,2.1-3,0.9
			c-3.1-4-9.5-9.9-21.7-12.7c-1.5-0.3-1.8-2.3-0.5-3.1c4.5-2.6,10.7-8.1,13.3-19.3C190.1,95.6,192.1,95.2,192.9,96.6z M184.5,92.1
			c0,13.3-10.8,24-24,24c-13.3,0-24-10.8-24-24c0-13.3,10.8-24,24-24C173.8,68.1,184.5,78.9,184.5,92.1z M114.5,58.3
			c7.3-1.8,22.5-4.2,36.9,1.1c1.5,0.6,1.5,2.7,0,3.3c-4.8,1.9-12.6,6.6-18.8,17.9c-0.8,1.4-2.8,1.1-3.2-0.4c-1.3-5.2-5-13-15.4-18.7
			C112.6,60.8,112.9,58.7,114.5,58.3z M102.1,64.8c13.3,0,24,10.8,24,24c0,13.3-10.8,24-24,24c-13.3,0-24-10.8-24-24
			C78.1,75.5,88.9,64.8,102.1,64.8z M69.2,87.3c1-1.2,2.9-0.5,3,1c0.2,5,2,13.6,10.3,22.9c1,1.1,0.1,2.9-1.4,2.8
			c-5.2-0.5-13.5,0.4-22,8c-1.2,1-3,0.1-2.8-1.4C57,113.3,59.7,98.7,69.2,87.3z M56.6,141.9c0-13.3,10.8-24,24-24
			c13.3,0,24,10.8,24,24c0,13.3-10.8,24-24,24C67.4,166,56.6,155.2,56.6,141.9z M97.1,196c-13.7-5.8-22.8-17.5-26.8-23.6
			c-0.9-1.3,0.3-2.9,1.9-2.6c11.1,2.8,18.9-0.2,23.2-3c1.3-0.8,2.9,0.3,2.6,1.8c-3.1,12.1-0.7,20.5,1.4,25.1
			C99.9,195.2,98.5,196.6,97.1,196z M101.7,179.4c0-13.3,10.8-24,24-24s24,10.8,24,24c0,13.3-10.8,24-24,24S101.7,192.7,101.7,179.4
			z"/>
		<circle class="st51" cx="126.6" cy="130.6" r="5.7"/>
		<g>
			<path class="st50" d="M250.2,54.2L224,7.9c-0.3-0.5-0.7-0.9-1.1-1.2l-7.1-6.3c-0.9-0.5-2-0.5-2.9,0L201,6.7c-1.4,0.8-2,2.6-1.2,4
				l9.1,16.9c-1.7,3.9-1,9.4,2.1,14.2c2.5,3.8,6,6.4,9.4,7.3l4.9,9.1c0.3,0.6,0.8,1.1,1.4,1.3l9.8,4.2c0.8,0.4,1.8,0.3,2.6-0.1
				l9.8-5.5C250.4,57.4,250.9,55.6,250.2,54.2z"/>
			<path class="st51" d="M225.9,59c0.3,0.6,0.3,0.3,0.9,0.6l9.8,4.2c0.8,0.4,1.8,0.3,2.6-0.1l9.9-5.4c1.4-0.8,1.7-1.7,1.7-1.7
				l0.1-0.6l-10.1-5.2L225.9,59z"/>
		</g>
		<path class="st68" d="M217.6,50.1c-3-1.2-5.9-3.5-8-6.8c-0.7-1.1-1.3-2.3-1.8-3.4l-75.2,75.2c-3.3-0.6-6.9,0.4-9.4,2.9l-6.5,6.6
			c-4.1,4.1-4.1,10.9,0,15l0.8,0.8c4.1,4.1,10.9,4.1,15,0l6.5-6.6c2.2-2.2,3.3-5.3,3.1-8.2c0.2-0.1,0.4-0.3,0.5-0.4L217.6,50.1z
			 M126.6,138.1c-4.1,0-7.5-3.4-7.5-7.5c0-4.1,3.4-7.5,7.5-7.5c4.1,0,7.5,3.4,7.5,7.5C134.1,134.7,130.7,138.1,126.6,138.1z"/>
		<path class="st52" d="M250.5,53.9l-9.9-17.5c0.2-4.9,1.1-8.3-1.2-12.3c-3.1-5.4-4.9-6.3-10.5-8.4l-5.4-9.5
			c-0.3-0.5-0.6-0.9-1.1-1.2l-6.6-4.5c-0.8-0.6-2.1-0.4-2.9,0l11.3,20.4c2.8,0.8,5.8,3.3,7.9,7c2.2,3.9,2.9,8,1.9,10.8l6.8,12.2l9,7
			C251,57.1,251.3,55.4,250.5,53.9z"/>
		<ellipse class="st51" cx="220.5" cy="34.9" rx="8.7" ry="8.7"/>
	</g>
	<g id="wheelFront" class="st0">
	</g>
	<g id="wheelRear" class="st0">
		<path class="st8" d="M-279.2-204c-163.5,0-296,132.2-296,295.3s132.5,295.3,296,295.3s296-132.2,296-295.3S-115.7-204-279.2-204z
			 M-279.2,358.3c-147.8,0-267.7-119.5-267.7-267s119.8-267,267.7-267S-11.5-56.1-11.5,91.3S-131.3,358.3-279.2,358.3z"/>
	</g>
	<g id="staticFront" class="st0">
		<linearGradient id="SVGID_6_" gradientUnits="userSpaceOnUse" x1="-599.3605" y1="-43.5822" x2="37.6782" y2="-43.5822">
			<stop  offset="0.5753" style="stop-color:#000000"/>
			<stop  offset="0.6659" style="stop-color:#070707"/>
			<stop  offset="0.8002" style="stop-color:#1B1B1B"/>
			<stop  offset="0.961" style="stop-color:#3C3C3C"/>
			<stop  offset="1" style="stop-color:#454545"/>
		</linearGradient>
		<path class="st29" d="M-286.5-232.1c-155,0-284.1,110.5-312.9,257.1l24.6-4.8C-546.3-113.6-426.5-214-283.2-214
			c164.6,0,303.3,137,303.3,300.3c0,15-1.1,29.8-3.3,44.2l16.3,14.4c2.9-17.4,4.5-35.3,4.5-53.5C37.7-84.7-110.3-232.1-286.5-232.1z
			"/>
		<path class="st60" d="M125.4,47.3c-1.6,0-3.2,0.1-4.7,0.1l-299.6,8.8l0,0l-97.5,2.9c-26.7,1.2-43,16.9-38.8,35.3
			c3.8,16.4,11.8,22.6,86.1,47.1c19.8,6.5,68,23.9,93.3,30c62.7,15.1,107.6,33.6,261.2,39.1c48.8,1.7,84.4-33.3,84.4-79.6
			S172,47.3,125.4,47.3z"/>
	</g>
</g>
</svg>
