<?xml version="1.0" encoding="utf-8"?>
<!-- Generator: Adobe Illustrator 21.0.0, SVG Export Plug-In . SVG Version: 6.00 Build 0)  -->
<svg version="1.1" xmlns="http://www.w3.org/2000/svg" xmlns:xlink="http://www.w3.org/1999/xlink" x="0px" y="0px"
	 viewBox="0 0 1600 905" style="enable-background:new 0 0 1600 905;" xml:space="preserve">
<style type="text/css">
	.st0{display:none;}
	.st1{display:inline;fill:#C1C1C1;}
	.st2{display:inline;fill:#6D6D6D;}
	.st3{display:inline;fill:#B2ACAA;}
	.st4{display:inline;fill:#0A0B10;}
	.st5{display:inline;fill:none;stroke:#848484;stroke-width:8;stroke-linecap:round;stroke-linejoin:round;stroke-miterlimit:10;}
	.st6{display:inline;fill:none;stroke:#7F7F7F;stroke-miterlimit:10;}
	.st7{display:inline;fill:#BCB8B7;}
	.st8{display:inline;fill:#403326;}
	.st9{display:inline;fill:#3C332F;}
	.st10{display:inline;fill:#B2B1B1;}
	.st11{display:inline;fill:#C5C1BD;}
	.st12{display:inline;fill:none;stroke:#9B9998;stroke-width:4;stroke-linejoin:round;stroke-miterlimit:10;}
	.st13{display:inline;fill:none;stroke:#B2B1B1;stroke-width:4;stroke-linejoin:round;stroke-miterlimit:10;}
	.st14{display:inline;fill:#C1BDBC;}
	.st15{display:inline;fill:#51200D;}
	.st16{display:inline;fill:#817972;}
	.st17{display:inline;}
	.st18{fill:#958F85;}
	.st19{display:inline;fill:#835149;}
	.st20{display:inline;fill:#828282;}
	.st21{display:inline;fill:#D3CBC9;}
	.st22{display:inline;fill:#887F7B;}
	.st23{display:inline;fill:#C1BCBC;}
	.st24{display:inline;fill:url(#SVGID_1_);}
	.st25{display:inline;fill:url(#SVGID_2_);}
	.st26{display:inline;fill:url(#SVGID_3_);}
	.st27{display:inline;fill:url(#SVGID_4_);}
	.st28{display:inline;fill:url(#SVGID_5_);}
	.st29{display:inline;fill:url(#SVGID_6_);}
	.st30{display:inline;fill:url(#SVGID_7_);}
	.st31{display:inline;fill:url(#SVGID_8_);}
	.st32{display:inline;fill:url(#SVGID_9_);}
	.st33{display:inline;fill:url(#SVGID_10_);}
	.st34{display:inline;fill:url(#SVGID_11_);}
	.st35{display:inline;fill:url(#SVGID_12_);}
	.st36{display:inline;fill:url(#SVGID_13_);}
	.st37{display:inline;fill:url(#SVGID_14_);}
	.st38{display:inline;fill:url(#SVGID_15_);}
	.st39{display:inline;fill:url(#SVGID_16_);}
	.st40{display:inline;fill:url(#SVGID_17_);}
	.st41{display:inline;fill:url(#SVGID_18_);}
	.st42{display:inline;fill:url(#SVGID_19_);}
	.st43{display:inline;fill:url(#SVGID_20_);}
	.st44{display:inline;fill:url(#SVGID_21_);}
	.st45{display:inline;fill:url(#SVGID_22_);}
	.st46{display:inline;fill:url(#SVGID_23_);}
	.st47{display:inline;fill:url(#SVGID_24_);}
	.st48{display:inline;fill:#A59E98;}
	.st49{display:inline;fill:url(#SVGID_25_);}
	.st50{fill:#A09895;}
	.st51{fill:#827D7D;}
	.st52{fill:#726E6E;}
	.st53{display:inline;fill:#939393;}
	.st54{display:inline;fill:#827D7D;}
	.st55{display:inline;fill:none;stroke:#C7C0B8;stroke-width:3.1111;stroke-linejoin:round;stroke-miterlimit:10;}
	.st56{display:inline;fill:#DB2916;}
	.st57{fill:#938C8A;}
	.st58{display:inline;fill:none;stroke:url(#SVGID_26_);stroke-width:8;stroke-miterlimit:10;}
	.st59{display:inline;fill:url(#SVGID_27_);}
	.st60{display:inline;fill:none;stroke:#53494D;stroke-width:7;stroke-miterlimit:10;}
	.st61{display:inline;fill:#9B9B9B;}
	.st62{display:inline;fill:#726E6E;}
	.st63{fill:url(#SVGID_28_);}
	.st64{fill:url(#SVGID_29_);}
	.st65{fill:#0A0B10;}
	.st66{display:inline;fill:url(#SVGID_30_);}
	.st67{display:inline;fill:url(#SVGID_31_);}
	.st68{display:inline;fill:url(#SVGID_32_);}
	.st69{display:inline;fill:url(#SVGID_33_);}
	.st70{display:inline;fill:url(#SVGID_34_);}
	.st71{display:inline;fill:url(#SVGID_35_);}
	.st72{display:inline;fill:url(#SVGID_36_);}
	.st73{display:inline;fill:url(#SVGID_37_);}
	.st74{display:inline;fill:url(#SVGID_38_);}
	.st75{display:inline;fill:url(#SVGID_39_);}
	.st76{display:inline;fill:url(#SVGID_40_);}
	.st77{display:inline;fill:none;stroke:url(#SVGID_41_);stroke-width:8;stroke-miterlimit:10;}
	.st78{display:inline;fill:url(#SVGID_42_);}
</style>
<g id="wzór" class="st0">
</g>
<g id="kopie_x2F_zapas" class="st0">
</g>
<g id="spod" class="st0">
	<circle class="st3" cx="732.3" cy="625.7" r="22.6"/>
	<path class="st4" d="M333.7,562.9l-55.8-221l-22.8-85.6c0,0,6.8-8.4-4.5-10.4c-11.3-2-13,5.9-11.3,8.1c1.7,2.3,0.6,2.5,6.2,4.7
		l13.6,57.7l26.2,104.1l39.3,142.2L333.7,562.9z"/>
	<path class="st4" d="M333.7,562.9l-55.8-221l-22.8-85.6c0,0,6.8-8.4-4.5-10.4c-11.3-2-13,5.9-11.3,8.1c1.7,2.3,0.6,2.5,6.2,4.7
		l13.6,57.7l26.2,104.1l39.3,142.2L333.7,562.9z"/>
	<path class="st4" d="M333.7,562.9l-55.8-221l-22.8-85.6c0,0,6.8-8.4-4.5-10.4c-11.3-2-13,5.9-11.3,8.1c1.7,2.3,0.6,2.5,6.2,4.7
		l13.6,57.7l26.2,104.1l39.3,142.2L333.7,562.9z"/>
</g>
<g id="rowa" class="st0">
	<g id="szprychy">
		<line class="st6" x1="298.5" y1="574.4" x2="158.5" y2="392.5"/>
		<line class="st6" x1="302.6" y1="569" x2="280" y2="333.5"/>
		<line class="st6" x1="323" y1="329" x2="312.5" y2="562.5"/>
		<line class="st6" x1="369" y1="333.5" x2="344.4" y2="590"/>
		<line class="st6" x1="410.5" y1="342" x2="346" y2="599.4"/>
		<line class="st6" x1="489" y1="387.5" x2="318.3" y2="570.4"/>
		<line class="st6" x1="521" y1="420" x2="346" y2="594"/>
		<line class="st6" x1="549.5" y1="452.5" x2="342" y2="599.4"/>
		<line class="st6" x1="569.5" y1="493" x2="326.8" y2="566.7"/>
		<line class="st6" x1="579.5" y1="538.5" x2="320.5" y2="566.7"/>
		<line class="st6" x1="586" y1="581" x2="329" y2="608.6"/>
		<line class="st6" x1="584" y1="626" x2="323" y2="606"/>
		<line class="st6" x1="572" y1="670.5" x2="335" y2="572.5"/>
		<line class="st6" x1="553.5" y1="709.5" x2="329" y2="562.5"/>
		<line class="st6" x1="529" y1="747.5" x2="304.5" y2="599.4"/>
		<line class="st6" x1="495.5" y1="778.5" x2="310" y2="594.5"/>
		<line class="st6" x1="460.5" y1="808" x2="346" y2="590"/>
		<line class="st6" x1="422" y1="829.5" x2="349.1" y2="578.3"/>
		<line class="st6" x1="374.5" y1="839.5" x2="302" y2="581"/>
		<line class="st6" x1="331.5" y1="846" x2="310" y2="599.4"/>
		<line class="st6" x1="285" y1="843.5" x2="338.3" y2="606"/>
		<line class="st6" x1="240.5" y1="829.5" x2="344.4" y2="594.5"/>
		<polyline class="st6" points="158.5,789 302,590 197.5,813.5 		"/>
		<line class="st6" x1="129" y1="756" x2="331.5" y2="608"/>
		<line class="st6" x1="101.5" y1="720.5" x2="323" y2="611.6"/>
		<line class="st6" x1="82" y1="679.5" x2="302" y2="576"/>
		<line class="st6" x1="71" y1="636" x2="298.5" y2="572.5"/>
		<line class="st6" x1="65" y1="590" x2="304.5" y2="603"/>
		<line class="st6" x1="71" y1="544.5" x2="295.5" y2="599"/>
		<line class="st6" x1="82" y1="500" x2="307" y2="562.5"/>
		<line class="st6" x1="101.5" y1="459.5" x2="310" y2="555.5"/>
		<line class="st6" x1="125" y1="420" x2="295.5" y2="585"/>
		<line class="st6" x1="194.5" y1="365" x2="329" y2="559"/>
		<line class="st6" x1="234" y1="344.5" x2="350.7" y2="580.7"/>
		<line class="st6" x1="1318" y1="314.5" x2="1276" y2="572.5"/>
		<line class="st6" x1="1367" y1="323" x2="1272.5" y2="571.3"/>
		<line class="st6" x1="1413.5" y1="344.5" x2="1301" y2="584.8"/>
		<line class="st6" x1="1456.5" y1="374" x2="1304.5" y2="577.3"/>
		<line class="st6" x1="1493" y1="412.6" x2="1282.1" y2="564"/>
		<line class="st6" x1="1523" y1="452.5" x2="1275.3" y2="564"/>
		<line class="st6" x1="1540.5" y1="500.5" x2="1291.6" y2="590.6"/>
		<line class="st6" x1="1550.5" y1="549" x2="1287.7" y2="585.6"/>
		<line class="st6" x1="1550.5" y1="601" x2="1291.6" y2="560.5"/>
		<line class="st6" x1="1520" y1="696" x2="1279.5" y2="587.9"/>
		<line class="st6" x1="1493" y1="737.5" x2="1273.5" y2="580.8"/>
		<line class="st6" x1="1453.5" y1="773.5" x2="1302.9" y2="566.8"/>
		<line class="st6" x1="1413.5" y1="802.5" x2="1299.9" y2="562.8"/>
		<line class="st6" x1="1318" y1="831" x2="1276" y2="580.8"/>
		<line class="st6" x1="1263.5" y1="831" x2="1304.5" y2="577.3"/>
		<line class="st6" x1="1213" y1="821.5" x2="1304.8" y2="574.4"/>
		<polyline class="st6" points="1165.5,799 1275.3,577.3 1367,821.5 		"/>
		<line class="st6" x1="1124" y1="773.5" x2="1276.9" y2="566.8"/>
		<line class="st6" x1="1090.5" y1="737.5" x2="1301" y2="584.8"/>
		<line class="st6" x1="1058.5" y1="696" x2="1288.5" y2="587.9"/>
		<line class="st6" x1="1042" y1="649.5" x2="1287.7" y2="560.7"/>
		<line class="st6" x1="1032" y1="598" x2="1272.3" y2="561"/>
		<line class="st6" x1="1032" y1="545.6" x2="1282.1" y2="587.9"/>
		<line class="st6" x1="1042" y1="498" x2="1279.5" y2="584.8"/>
		<polyline class="st6" points="1058.5,450.5 1294.9,561 1540.5,649.5 		"/>
		<line class="st6" x1="1090.5" y1="410.5" x2="1299.5" y2="566.8"/>
		<polyline class="st6" points="1164.8,344.5 1275.3,577.3 1126,374 		"/>
		<line class="st6" x1="1213" y1="323" x2="1302.9" y2="569"/>
		<line class="st6" x1="1263.5" y1="314.5" x2="1301" y2="571.3"/>
	</g>
	<g id="wheels">
		<path class="st7" d="M1291.6,304.7c-148.7,0-269.3,119.9-269.3,267.8s120.6,267.8,269.3,267.8s269.3-119.9,269.3-267.8
			S1440.3,304.7,1291.6,304.7z M1291.6,826.1c-140.9,0-255.1-113.6-255.1-253.7s114.2-253.7,255.1-253.7s255.1,113.6,255.1,253.7
			S1432.5,826.1,1291.6,826.1z"/>
		<path class="st7" d="M326.1,318.9c-147.9,0-267.8,119.9-267.8,267.8s119.9,267.8,267.8,267.8s267.8-119.9,267.8-267.8
			S474,318.9,326.1,318.9z M326.1,840.4C186,840.4,72.4,726.8,72.4,586.7S186,333,326.1,333s253.7,113.6,253.7,253.7
			S466.3,840.4,326.1,840.4z"/>
		<path class="st8" d="M326.3,291.1c-163.5,0-296,132.2-296,295.3s132.5,295.3,296,295.3s296-132.2,296-295.3
			S489.8,291.1,326.3,291.1z M326.3,853.4c-147.8,0-267.7-119.5-267.7-267s119.8-267,267.7-267s267.7,119.5,267.7,267
			S474.1,853.4,326.3,853.4z"/>
		<path class="st9" d="M1291.6,277.2c-164,0-296.9,132.2-296.9,295.3s132.9,295.3,296.9,295.3c164,0,296.9-132.2,296.9-295.3
			S1455.6,277.2,1291.6,277.2z M1291.6,839.5c-148.3,0-268.5-119.5-268.5-267s120.2-267,268.5-267s268.5,119.5,268.5,267
			S1439.8,839.5,1291.6,839.5z"/>
	</g>
	<g id="sit">
		<path class="st10" d="M691.4,99L691.4,99L691.4,99c-2-0.9-4-1.4-6.2-1.6L669,93.3l-6.9,2.3l13.6,3.5c-6.4,3-10.8,9.5-10.8,17
			c0,5.4,2.3,10.2,5.9,13.7h-31.5c-0.3,0-0.6,0.2-0.6,0.5v4.1c0,0.3,0.3,0.5,0.6,0.5h43.8c0.1,0,0.1,0,0.1,0c0.1,0,0.3,0,0.4,0
			c10.4,0,18.8-8.4,18.8-18.8C702.5,108.5,698,101.9,691.4,99z M683.7,130.7c-8,0-14.5-6.5-14.5-14.5s6.5-14.5,14.5-14.5
			c8,0,14.5,6.5,14.5,14.5S691.7,130.7,683.7,130.7z"/>
		<path class="st16" d="M547,179.4l-3.3-9.7c0-0.1,0-0.2,0-0.4l1.5-4.4c0.1-0.2,0.3-0.4,0.6-0.4c2,0.2,10.3,1,15.4,0
			c0.3-0.1,0.5,0.1,0.6,0.4l2.8,7.3c0.1,0.3,0,0.6-0.3,0.7l-16.6,6.8C547.5,179.9,547.1,179.7,547,179.4z"/>
		<path class="st12" d="M489.8,125.3c0,0-5.7-6-10.9-7c0,0,7.6-0.8,12.4,1.3c0,0,1.2-6.6-19.9-8.7c0,0,17.5-4.1,27.9-3
			c0,0-30.1-15.3-30.1-9c0,0,1,7.3,35.7,0.8c0,0-17.5-14.3-32.2-12.3c-7.8,1.5,25.4,7.8,32.8,0c0,0,0.7-6.2-29.3-6.9
			c0,0,6.7,1.7,14.8-6.6"/>
		<path class="st13" d="M505.2,126.3c0,0-5.7-6-10.9-7c0,0,7.6-0.8,12.4,1.3c0,0,1.2-6.6-19.9-8.7c0,0,17.5-4.1,27.9-3
			c0,0-30.1-15.3-30.1-9c0,0,1,7.3,35.7,0.8c0,0-17.5-14.3-32.2-12.3c-7.8,1.5,25.4,7.8,32.8,0c0,0,0.7-6.2-29.3-6.9
			c0,0,6.7,1.7,14.8-6.6"/>
		<path class="st14" d="M547.6,128.7v15.4c0,6.6,5.1,11.9,11.4,11.9s11.4-5.3,11.4-11.9v-15.4H547.6z"/>
		<path class="st15" d="M696,82.7c0,0-59.7,25-73.8,29.5c-14.2,4.5-20.6,6.4-26.3,7.3c-3.4,0.6-5.2,1.2-11.8-1.3
			c-4.8-1.8-8.5-5.6-11.8-7.6c-3.3-2-10.2-6.3-10.2-6.3s-20.4-6.6-32.8-10.4C516.8,90,483.8,79.8,467,69.7c0,0,36.5-7.9,112.2,18.6
			C579.2,88.3,632,76,696,82.7z"/>
		<path class="st20" d="M577.2,142.9l-3.6-0.2c-1.4-0.1-2.1,0.7-2.1,1.6v0c0,7.2-5.6,13.1-12.5,13.1c-6.9,0-12.5-5.9-12.5-13.1v-1.8
			c0-0.8-0.5-1.8-1.2-1.8l-10.4,0.1c-0.6,0-0.8,0.7-0.8,1.4v4.8c0,0.5,0.1,0.9,0.3,1.3l9.5,17.8l0.7-2c0.1-0.3,0.4-0.4,0.6-0.4
			c2.1,0.2,10.4,1,15.9,0.2v-1.5c0-0.3,0-0.5-0.1-0.8c9.1-0.3,16.5-7.5,17.7-16.8C578.8,143.8,578.1,143,577.2,142.9z"/>
		<g class="st17">
			<path class="st18" d="M474.5,122.4v10c0,0.4,0.3,0.8,0.8,0.8l12.8,0.9l0.3,5.3c0,0.4,0.4,0.8,0.8,0.8l57-0.9v-12.2l-70.8-5.8
				C474.9,121.5,474.5,121.9,474.5,122.4z"/>
			<path class="st18" d="M651.5,124.2c0.1-1.3-1-2.5-2.3-2.6l-5.4-0.3c-1.3-0.1-2.5,1-2.6,2.3l-0.6,11.3l-68.9-5.6v10.9l68.4,4.9
				l-0.1,1.3c-0.1,1.3,1,2.5,2.3,2.6l5.4,0.3c1.3,0.1,2.5-1,2.6-2.3l0.1-1.2c0.4-0.1,0.6-0.4,0.6-0.8v-8.6c0-0.1,0-0.3-0.1-0.4
				L651.5,124.2z"/>
		</g>
		<path class="st19" d="M695.3,82.5c0,0-5.3-17.5-36-18.8s-73,0-73,0S545,61,520.5,55.3s-36-5.5-36-5.5s-15.3,0-18.8,16.4
			c0,0-0.5,3.1,1.9,4c0,0,8.9-1.8,24.1,3.4s57.5,24.9,57.5,24.9s21.8,10.8,28.6,11.4s19.3,1.6,27.9-0.6s23.9-5.4,40.8-11
			S683.8,85,695.3,82.5z"/>
	</g>
	<g id="steer">
		<path class="st23" d="M1079,62.8l5.5-3.8l43.8-1.5c0,0-0.5,7.8-7.8,13.3s-18.8,10.5-24,12.8s-10.3,4-10.3,4s-1-11.8-8.1-17.3
			c0,0,13.1-4.3,15.6-6.8L1079,62.8z"/>
		<path class="st22" d="M1046.2,60.5l-4.3-10l19.5-9c0,0,8.5-4.4,15.5-0.7c7,3.7,6.2,13.4,6.2,13.4s-0.2,10-14.7,14.5
			s-15.9,5.7-15.9,5.7l-4.8-11.3l13.7-6.2l2.7-1.3l-1.4-2.8L1046.2,60.5z"/>
		<path class="st21" d="M1084.2,40.8l-9.8,0c0,0-13.8-0.4-13.8,9.2c0,8.8,5.1,10.8,6.6,11.2c0.2,0.1,0.5,0.1,0.7,0.1h27l38.9,0.7
			c0.1,0,0.2,0,0.2,0c1,0.1,7.5,0.8,6.7,2.8c-0.8,2.2-6.2,5.3-6.2,5.3l-13.7,8.2c-0.7,0.4-1.2,1.2-1.4,2c-0.5,3.2-0.6,11.2,8.4,13.4
			c0.7,0.2,1.5,0.1,2.1-0.3c4.3-2.4,22-13,26.1-23c4.7-11.3-1.5-17.3-1.5-17.3s-6.8-7.8-22.5-9.5C1116.3,42,1084.2,40.8,1084.2,40.8
			z"/>
		
			<ellipse transform="matrix(0.9938 -0.111 0.111 0.9938 3.1269 123.0216)" class="st14" cx="1106.9" cy="33.4" rx="22.7" ry="7.7"/>
		<path class="st19" d="M1120.8,78.4c0,0-1.7,1.2-0.5,6.8c1.2,5.6,3.9,6.9,3.9,6.9s2,2.1,6.8,1.1c0,0-0.6,3.8-4.9,3.9
			c0,0-21.9,19.1-55.6,31.5c0,0-14.8-2-10.3-20.9c0,0,31.8-20,56.4-28.4c0,0,2.5-4.2,6.5-2.2L1120.8,78.4z"/>
		<path class="st22" d="M1131.2,47.3l-1.3-14.7c0-0.1,0-0.1,0-0.2c0,0.2-0.1,0.4-0.2,0.5c-0.2,0.4-0.6,1-1.2,1.8
			c-3.1,3.2-10.9,6-20.3,7c-11.8,1.3-22.3-0.2-23.7-3.9c-0.1-0.2-0.1-0.3-0.1-0.5c-0.1,0.3-0.1,0.5,0,0.8c0,0.3,0.1,0.6,0.2,0.8
			l0,0.4l1.6,12.4c0,0.2,0,0.3,0,0.5c0.5,4.2,10.9,6.5,23.4,5.1C1122,56,1131.7,51.5,1131.2,47.3z M1086.3,40.8L1086.3,40.8
			C1086.3,40.8,1086.3,40.7,1086.3,40.8C1086.3,40.7,1086.3,40.7,1086.3,40.8z"/>
		<path class="st21" d="M1102.7,133.7c-1.8,0.2-3.4,0.4-5,0.7c0.3-1.5,0.4-3.3-0.7-4.1c-1.2-0.9-3-0.7-4.3-0.4c0-0.1,0-0.2,0-0.2
			l-1.8-4.9c-0.2-0.6-0.8-1-1.5-0.9c-0.3,0-0.6,0.1-0.8,0.1l-20-53.5c-0.3-0.8-1.2-1.2-2-0.9l-13.1,5c-0.8,0.3-1.2,1.2-0.9,2
			l20,53.3c0.1,0.1,0.1,0.3,0.2,0.4c-0.5,0.3-1,0.6-1.3,0.9c-0.6,0.4-0.8,1.1-0.5,1.7l2,4.7c0.1,0.2,0.2,0.3,0.3,0.4
			c-0.4,0.4-0.8,0.7-0.9,1c-0.9,1.8-0.2,3.3,0.6,4.2c-2.5,1.6-4,3-4.8,3.7c-0.3,0.3-0.2,0.7,0.1,0.9l6.3,4.2
			c0.1,0.1,0.2,0.1,0.4,0.1c8.5-0.7,24.3-7.8,26.5-8.9c0.2-0.1,0.3-0.2,0.3-0.4l1.6-8.3C1103.4,134,1103.1,133.7,1102.7,133.7z"/>
		<path class="st19" d="M1076.3,69.5c0,0,8.9,4,9.5,18.9c0,0-26.6,18.1-58.5,25.6c0,0-4.8,5.5-9.6,4.6s-9.8-11.3-9.8-11.3
			s-1.9-8.4,0.8-11s7.4-1.5,7.4-1.5S1038.8,80,1076.3,69.5z"/>
		<path class="st21" d="M1054.3,75.6l-11.6-29.5c1-5.1,5.5-6.8,10.6-4.3l12.4,28.7L1054.3,75.6z"/>
	</g>
	<g id="blotniki">
		<linearGradient id="SVGID_1_" gradientUnits="userSpaceOnUse" x1="6.093" y1="451.5" x2="643.1317" y2="451.5">
			<stop  offset="0.5753" style="stop-color:#000000"/>
			<stop  offset="0.6659" style="stop-color:#070707"/>
			<stop  offset="0.8002" style="stop-color:#1B1B1B"/>
			<stop  offset="0.961" style="stop-color:#3C3C3C"/>
			<stop  offset="1" style="stop-color:#454545"/>
		</linearGradient>
		<path class="st24" d="M319,263C164,263,34.9,373.5,6.1,520.1l24.6-4.8c28.5-133.8,148.3-234.2,291.6-234.2
			c164.6,0,303.3,137,303.3,300.3c0,15-1.1,29.8-3.3,44.2l16.3,14.4c2.9-17.4,4.5-35.3,4.5-53.5C643.1,410.3,495.1,263,319,263z"/>
		<linearGradient id="SVGID_2_" gradientUnits="userSpaceOnUse" x1="967.4412" y1="480.317" x2="1294.8652" y2="480.317">
			<stop  offset="0.5753" style="stop-color:#000000"/>
			<stop  offset="0.6659" style="stop-color:#070707"/>
			<stop  offset="0.8002" style="stop-color:#1B1B1B"/>
			<stop  offset="0.961" style="stop-color:#3C3C3C"/>
			<stop  offset="1" style="stop-color:#454545"/>
		</linearGradient>
		<path class="st25" d="M1010,695.7c1-0.9,1.3-2.3,0.7-3.4c-19.4-38.3-30.4-81.3-30.4-126.7c0-160.9,134.4-296.3,303.4-296.3
			c0.5,0,1.1,0,1.6,0c1.3,0,2.4-0.8,2.8-2.1c1.3-4.5,5.3-4.5,6.7-9.1c0.6-1.8-0.8-3.7-2.7-3.7c-1.1,0-2.2,0-3.3,0
			c-177.4,0-321.3,143.8-321.3,321.3c0,45.8,9.6,89.4,26.8,128.8c0.8,1.7,3,2.2,4.5,1L1010,695.7z"/>
	</g>
	<g id="frame">
		<circle class="st7" cx="319.2" cy="585.9" r="26.9"/>
		<linearGradient id="SVGID_3_" gradientUnits="userSpaceOnUse" x1="826.34" y1="188.9241" x2="825.768" y2="167.0807">
			<stop  offset="0.227" style="stop-color:#454545"/>
			<stop  offset="0.2364" style="stop-color:#414141"/>
			<stop  offset="0.3222" style="stop-color:#252525"/>
			<stop  offset="0.4078" style="stop-color:#101010"/>
			<stop  offset="0.4925" style="stop-color:#040404"/>
			<stop  offset="0.5753" style="stop-color:#000000"/>
			<stop  offset="0.6594" style="stop-color:#030303"/>
			<stop  offset="0.7201" style="stop-color:#0C0C0C"/>
			<stop  offset="0.7735" style="stop-color:#1C1C1C"/>
			<stop  offset="0.8223" style="stop-color:#323232"/>
			<stop  offset="0.8541" style="stop-color:#454545"/>
		</linearGradient>
		<polygon class="st26" points="1062.9,181 938.5,186 589.3,195.1 589.1,175.3 824.9,170.8 1062.9,160.9 		"/>
		<linearGradient id="SVGID_4_" gradientUnits="userSpaceOnUse" x1="1075.8805" y1="182.1338" x2="1075.2526" y2="158.155">
			<stop  offset="0.227" style="stop-color:#454545"/>
			<stop  offset="0.2364" style="stop-color:#414141"/>
			<stop  offset="0.3222" style="stop-color:#252525"/>
			<stop  offset="0.4078" style="stop-color:#101010"/>
			<stop  offset="0.4925" style="stop-color:#040404"/>
			<stop  offset="0.5753" style="stop-color:#000000"/>
			<stop  offset="0.6594" style="stop-color:#030303"/>
			<stop  offset="0.7201" style="stop-color:#0C0C0C"/>
			<stop  offset="0.7735" style="stop-color:#1C1C1C"/>
			<stop  offset="0.8223" style="stop-color:#323232"/>
			<stop  offset="0.8541" style="stop-color:#454545"/>
		</linearGradient>
		<path class="st27" d="M1063.5,182.3V159l13.9-0.9c0,0,10.2,6.5,10.8,23.7L1063.5,182.3z"/>
		<linearGradient id="SVGID_5_" gradientUnits="userSpaceOnUse" x1="1084.8892" y1="248.9468" x2="1115.4246" y2="248.9468">
			<stop  offset="0.5753" style="stop-color:#000000"/>
			<stop  offset="0.6659" style="stop-color:#070707"/>
			<stop  offset="0.8002" style="stop-color:#1B1B1B"/>
			<stop  offset="0.961" style="stop-color:#3C3C3C"/>
			<stop  offset="1" style="stop-color:#454545"/>
		</linearGradient>
		<path class="st28" d="M1084.9,249.1l20.1-18.4c0,0,15.3,5.5,8.8,27.3c0,0-7.5,1.7-12.8,9.4L1084.9,249.1z"/>
		<linearGradient id="SVGID_6_" gradientUnits="userSpaceOnUse" x1="927.3429" y1="448.1007" x2="906.1141" y2="426.8719">
			<stop  offset="0.5753" style="stop-color:#000000"/>
			<stop  offset="0.6659" style="stop-color:#070707"/>
			<stop  offset="0.8002" style="stop-color:#1B1B1B"/>
			<stop  offset="0.961" style="stop-color:#3C3C3C"/>
			<stop  offset="1" style="stop-color:#454545"/>
		</linearGradient>
		<polygon class="st29" points="1099.5,266.9 997,368.8 883.8,486.8 791.5,582.8 749.8,626 734.8,607.8 768,575.5 890,447.8 
			975.8,359.3 1032,301 1084.9,250.2 		"/>
		<linearGradient id="SVGID_7_" gradientUnits="userSpaceOnUse" x1="1074.75" y1="203.375" x2="1142" y2="203.375">
			<stop  offset="0.5753" style="stop-color:#000000"/>
			<stop  offset="0.6659" style="stop-color:#070707"/>
			<stop  offset="0.8002" style="stop-color:#1B1B1B"/>
			<stop  offset="0.961" style="stop-color:#3C3C3C"/>
			<stop  offset="1" style="stop-color:#454545"/>
		</linearGradient>
		<path class="st30" d="M1142,252.8L1101.8,143l-27,9l40.7,111.8C1115.4,263.8,1126.8,253,1142,252.8z"/>
		<linearGradient id="SVGID_8_" gradientUnits="userSpaceOnUse" x1="567.9481" y1="210.9389" x2="566.9406" y2="172.4666">
			<stop  offset="3.513514e-02" style="stop-color:#454545"/>
			<stop  offset="0.2514" style="stop-color:#545353"/>
			<stop  offset="0.2631" style="stop-color:#494949"/>
			<stop  offset="0.2757" style="stop-color:#454545"/>
			<stop  offset="0.4728" style="stop-color:#141414"/>
			<stop  offset="0.5753" style="stop-color:#000000"/>
			<stop  offset="0.666" style="stop-color:#030303"/>
			<stop  offset="0.7314" style="stop-color:#0C0C0C"/>
			<stop  offset="0.7888" style="stop-color:#1C1C1C"/>
			<stop  offset="0.8414" style="stop-color:#323232"/>
			<stop  offset="0.8757" style="stop-color:#454545"/>
		</linearGradient>
		<path class="st31" d="M590.5,196.2v-22.3h-23l-1.8-1.3c0,0-16.3,5.7-22,9.5l13.9,29.2c8.4-7.1,20.3-8.9,20.3-8.9l-2.5-6
			L590.5,196.2z"/>
		<linearGradient id="SVGID_9_" gradientUnits="userSpaceOnUse" x1="558.9639" y1="414.5365" x2="745.37" y2="414.5365">
			<stop  offset="0.5753" style="stop-color:#000000"/>
			<stop  offset="0.6659" style="stop-color:#070707"/>
			<stop  offset="0.8002" style="stop-color:#1B1B1B"/>
			<stop  offset="0.961" style="stop-color:#3C3C3C"/>
			<stop  offset="1" style="stop-color:#454545"/>
		</linearGradient>
		<path class="st32" d="M577.8,203.1L627.8,326l117.6,291.4l-20.5,8.6l-35.4-87l-53-132.9L573,248.3l-14-37
			C559,211.2,565.3,205.3,577.8,203.1z"/>
		<path class="st4" d="M322.4,578.3c0,0,10,8.3,0,16.7c0,0-1.7,1.3-5.7,1.3v6.3c0,0,7,3,16-3c0,0,22.3-0.7,46,0
			c23.7,0.7,348.7,34,348.7,34l2.3-23.3l-79-4.3l-115.7-7.3l-94.3-7.3l-26.3-1.3c0,0-49.3-4.7-51.3-6.7S322.4,578.3,322.4,578.3z"/>
		<path class="st4" d="M507.7,244.2l14.3-25.3c0,0,6.7-12.8,8.7-19.8s6.7-15.7,14.7-13.4c8,2.3,8,9.5,8,9.5s1.3,4.4-4,11.4
			c-5.3,7-12.8,15.7-16.2,20.7c-3.3,5-14.2,25.2-14.2,25.2L501.7,282l-29.3,49.3l-24,40.2L371,503l-29.7,45.3c0,0-8.7,13-9.3,20.7
			c0,0-4.7-10-13.7-8.7l13-17l29-45.7l46-78.7l35.3-62l35-58.7L507.7,244.2z"/>
		<linearGradient id="SVGID_10_" gradientUnits="userSpaceOnUse" x1="1114.8596" y1="412.593" x2="1287.6667" y2="412.593">
			<stop  offset="0.5753" style="stop-color:#000000"/>
			<stop  offset="0.6659" style="stop-color:#070707"/>
			<stop  offset="0.8002" style="stop-color:#1B1B1B"/>
			<stop  offset="0.961" style="stop-color:#3C3C3C"/>
			<stop  offset="1" style="stop-color:#454545"/>
		</linearGradient>
		<path class="st33" d="M1251,536.3c-11-8.7-28-20.3-35.3-40.7c-7.3-20.3-21.3-76.3-21.3-76.3l-24-77.3l-11.5-40.9l0,0l0,0
			l-4.5-15.8l-0.3,0.1l-6-19.8c0,0-0.5-0.2-1.4-0.4l-1.5-4.3c0.4-1-0.5-1.8-0.5-1.8l0.8-1.1c0,0,2.8-4.5-4.5-4.1s-15.1,4-15.1,4
			s-8.2,4.1-10.3,7.9c-2.2,3.8,2.6,4.5,2.6,4.5c0.5,1.8,1.5,1.1,1.5,1.1l1.3,3.4h0.3c-1,1-0.8,1.4-0.8,1.4l17.4,48l37.6,110.2
			c0,0,18.7,63,32.2,81s18.5,27.3,71.8,56l8.3-10.7C1287.7,560.7,1262,545,1251,536.3z"/>
		<path class="st4" d="M321.6,570.4l-55.1-224.3l-23.1-85.6c0,0,6.8-8.4-4.5-10.4s-12.9,5.9-11.3,8.1c1.7,2.3,0.6,2.5,6.3,4.7
			l13.8,57.6l26.5,104l37.5,145.8H321.6z"/>
		<linearGradient id="SVGID_11_" gradientUnits="userSpaceOnUse" x1="446.9676" y1="391.8219" x2="427.5762" y2="380.6263">
			<stop  offset="0" style="stop-color:#000000"/>
			<stop  offset="0.6459" style="stop-color:#1F1F1D"/>
			<stop  offset="1" style="stop-color:#454545"/>
		</linearGradient>
		<path class="st34" d="M333.1,583.1c0.9,1.3,2.7,1.4,3.4,0c6.8-13,40.6-76.2,58-106.2c20.5-35.3,60.8-104.3,60.8-104.3l47.8-85.5
			l26-48c0,0,0-0.1,0.1-0.1c0.7-1.1,15.1-24.4,18.7-28c3.8-3.7,5.8-14.2,1.3-17.7s-13.5-3.8-15.8,8.3c-2.2,11.7-20.2,39.5-21,40.7
			c0,0,0,0.1-0.1,0.1L471.5,313L406,426.5l-55.2,93.4c0,0,0,0.1-0.1,0.1c-0.8,1.6-27.1,52.7-32.6,52.7
			C312.9,572.8,323.4,570,333.1,583.1z"/>
		<path class="st4" d="M505,243.7c0,0-6.3,16-15,16s-46.3-2-46.3-2l-107-5.2l-86.5-5.7l-53.5-3.2l-16.8-1.5c0,0-5.2-0.8-5.5,3.3
			c-0.3,4.2,0,10,0,10s2,0.3,9.5,0.3l103,5.3L408,268l58.2,2.8c0,0,34.2,2.8,48.5-7.5c0,0,5.8-4.3,11.3,0.8c0,0,4.5-2.8,3.3-5.3
			c-1.2-2.5-4-7.2-6.7-9C520,248,509.7,240.7,505,243.7z"/>
		<linearGradient id="SVGID_12_" gradientUnits="userSpaceOnUse" x1="348.9322" y1="277.1064" x2="350.839" y2="249.8377">
			<stop  offset="0.6942" style="stop-color:#000000"/>
			<stop  offset="0.7951" style="stop-color:#131313"/>
			<stop  offset="0.9996" style="stop-color:#454545"/>
			<stop  offset="1" style="stop-color:#454545"/>
		</linearGradient>
		<path class="st35" d="M205.8,259c0,0,1,6.5,6.3,6.5s5.8-2,5.8-2s1.8,5,5,4.8s5.5-2.5,5.5-2.5l13.5-2.1c0,0,3.8,4.4,19.3,0
			l65.8,1.1l43.6,1.1l20.8,5.3l17,1.1l49.3,1.8c0,0,27.4,1.6,34.7-2.8c7.3-4.4-2.7-8.7-2.7-8.7L379,256.6c0,0-12.9-6.2-28.7-6.8
			c-15.8-0.6-81.6-4.1-81.6-4.1l-33-1.3C235.8,244.5,199.5,252.5,205.8,259z"/>
		<circle class="st4" cx="1288.5" cy="574.4" r="16.3"/>
		<circle class="st16" cx="1288.6" cy="574.4" r="9"/>
		<circle class="st48" cx="1288.6" cy="574.4" r="5.7"/>
		<radialGradient id="SVGID_13_" cx="317.75" cy="587.3355" r="19.2015" gradientUnits="userSpaceOnUse">
			<stop  offset="0" style="stop-color:#454545"/>
			<stop  offset="5.816852e-02" style="stop-color:#353535"/>
			<stop  offset="0.1653" style="stop-color:#1E1E1E"/>
			<stop  offset="0.2801" style="stop-color:#0D0D0D"/>
			<stop  offset="0.4066" style="stop-color:#030303"/>
			<stop  offset="0.5676" style="stop-color:#000000"/>
		</radialGradient>
		<circle class="st36" cx="317.8" cy="587.3" r="19.2"/>
		<circle class="st16" cx="318.3" cy="586.4" r="9"/>
		<circle class="st48" cx="318.3" cy="586.4" r="5.7"/>
	</g>
	<g id="rearPedal">
		<g class="st17">
			<path class="st50" d="M648.5,736.9l-42-34c-1.3-1-1.4-3-0.3-4.3l8.9-11c0.7-0.8,1.7-1.3,2.8-1.2l12.2,1.3
				c0.6,0.1,1.1,0.3,1.5,0.6l40.5,32.8c1.3,1,1.4,3,0.3,4.3l-8.7,10.8c-0.6,0.7-1.5,1.2-2.4,1.2l-10.9,0.2
				C649.7,737.6,649,737.3,648.5,736.9z"/>
			<path class="st51" d="M648.5,736.9c0.5,0.4,1.2,0.6,1.9,0.6l10.9-0.2c0.9,0,1.8-0.5,2.4-1.2l8.7-10.8c1.1-1.3,0.7-2.2,0.7-2.2
				l0,0l-13.4-0.1L648.5,736.9z"/>
			<path class="st52" d="M615.1,687.5c0.7-0.8,1.7-1.3,2.8-1.2l12.2,1.3c0.6,0.1,1.1,0.3,1.5,0.6l40.5,32.8c1.3,1,1.4,3,0.3,4.3l0,0
				l-10.8-0.9L615.1,687.5z"/>
		</g>
		<path class="st53" d="M741.8,616.6l-0.8-0.8c-4.1-4.1-10.9-4.2-15,0l-6.6,6.5c-2.6,2.5-3.5,6.1-2.9,9.4l-79.7,72.5
			c-0.1,0.1-0.1,0.1-0.1,0.2c-0.6-0.1-1.2-0.2-1.9-0.2c-6.2,0-11.3,5-11.3,11.3s5,11.3,11.3,11.3s11.3-5,11.3-11.3
			c0-0.2,0-0.4,0-0.6c0.3-0.1,0.6-0.3,0.8-0.6l79.8-72.5c0.2-0.2,0.3-0.3,0.4-0.5c3,0.2,6-0.8,8.2-3l6.6-6.5
			C745.9,627.5,745.9,620.7,741.8,616.6z M634.8,721.1c-3.1,0-5.7-2.5-5.7-5.7c0-3.1,2.5-5.7,5.7-5.7s5.7,2.5,5.7,5.7
			C640.4,718.5,637.9,721.1,634.8,721.1z M732,633.2c-4.1,0-7.5-3.4-7.5-7.5c0-4.1,3.4-7.5,7.5-7.5c4.1,0,7.5,3.4,7.5,7.5
			C739.5,629.8,736.1,633.2,732,633.2z"/>
		<circle class="st54" cx="634.8" cy="715.4" r="4.3"/>
	</g>
	<g id="dodatki">
		<path class="st19" d="M731.3,196.7l-28.8,0.5c-2.3-10.5-0.8-24.2-0.8-24.2l0.9,0l-0.8-2.1h-11c-2.1,10.5-0.9,20.7,0.3,26.5
			l-65.5,1.2l-0.2-1.2c0,0-2.4-12.6-1.5-23h2.3c0,0-0.1-5.6-1.9-6.9s-10.3,0-10.3,0s-2.1,19,1.2,31.3l-28.8,0.5
			c1.8,17.5,11,41,18.6,58.8l-1.7,3.9c-18.6,0.3-24.8,9.3-24.8,9.3l3.4,8.8h4.5v-1.3c4.8-6.4,19.5-8,19.5-8l3,8.3l5.5,1h117
			C740.3,234.3,731.3,196.7,731.3,196.7z"/>
		<path class="st56" d="M33.2,435.2c0,0,11.8-23.7,17.8-30.5l-11.4-2.4c0,0-5,8-8.4,32.1L33.2,435.2z"/>
		<linearGradient id="SVGID_14_" gradientUnits="userSpaceOnUse" x1="1096.5326" y1="177.3127" x2="1170.3334" y2="177.3127">
			<stop  offset="0.5753" style="stop-color:#000000"/>
			<stop  offset="0.6659" style="stop-color:#070707"/>
			<stop  offset="0.8002" style="stop-color:#1B1B1B"/>
			<stop  offset="0.961" style="stop-color:#3C3C3C"/>
			<stop  offset="1" style="stop-color:#454545"/>
		</linearGradient>
		<path style="display:inline;fill:none;stroke:url(#SVGID_14_);stroke-width:8;stroke-miterlimit:10;" d="M1170.3,180.6h-17
			c0,0-8.3,5-18.7,0c-10.3-5-20.7-10.4-37.7-8.4"/>
		<linearGradient id="SVGID_15_" gradientUnits="userSpaceOnUse" x1="1119.6702" y1="150.0811" x2="1197.5" y2="150.0811">
			<stop  offset="0.5753" style="stop-color:#000000"/>
			<stop  offset="0.6659" style="stop-color:#070707"/>
			<stop  offset="0.8002" style="stop-color:#1B1B1B"/>
			<stop  offset="0.961" style="stop-color:#3C3C3C"/>
			<stop  offset="1" style="stop-color:#454545"/>
		</linearGradient>
		<path class="st38" d="M1123.6,161.3c-5.3-4.8-5.2-13.1,0.2-17.7c10.4-8.9,28.3-21.6,46.2-21.6h20.3c4,0,7.3,3.2,7.3,7.3v41.1
			c0,4.2-3.4,7.6-7.6,7.6h-19.3c-0.4,0-0.8,0-1.1,0C1166.1,178.3,1143.9,179.6,1123.6,161.3z"/>
	</g>
	<g id="mainGear">
		<path class="st2" d="M809.8,620l5.1-2.9c-0.1-1.2-0.3-2.4-0.5-3.6l-5.7-1.5c-0.1-0.7-0.2-1.3-0.4-2l4.7-3.5
			c-0.3-1.2-0.6-2.3-0.9-3.5l-5.8-0.7c-0.2-0.7-0.4-1.3-0.7-1.9l4.2-4.1c-0.4-1.1-0.9-2.2-1.3-3.3l-5.9,0.1
			c-0.3-0.6-0.6-1.3-0.9-1.9l3.6-4.7c-0.6-1-1.1-2-1.7-3l-5.8,0.8c-0.4-0.6-0.8-1.2-1.2-1.9l3-5c-0.7-0.9-1.4-1.9-2.1-2.8l-5.5,1.5
			c-0.5-0.6-1-1.2-1.5-1.8l2.2-5.3c-0.8-0.8-1.6-1.7-2.4-2.5l-5.2,2.2c-0.6-0.5-1.2-1.1-1.8-1.6l1.5-5.5c-0.9-0.7-1.8-1.4-2.7-2.1
			l-4.8,2.8c-0.7-0.5-1.4-1-2.1-1.4l0.8-5.5c-1-0.6-2-1.1-2.9-1.7l-4.3,3.4c-0.8-0.4-1.5-0.8-2.3-1.2l0.1-5.5
			c-1-0.5-2.1-0.9-3.1-1.3l-3.8,3.9c-0.8-0.3-1.7-0.6-2.5-0.9l-0.7-5.4c-1.1-0.3-2.2-0.6-3.3-0.9l-3.2,4.3c-0.9-0.2-1.8-0.4-2.7-0.5
			l-1.4-5.2c-1.1-0.2-2.2-0.3-3.4-0.4l-2.6,4.7c-0.9-0.1-1.8-0.1-2.7-0.2l-2-4.9c-0.5,0-1,0-1.6,0c-0.6,0-1.2,0-1.9,0l-2,4.9
			c-0.9,0-1.8,0.1-2.7,0.2l-2.6-4.7c-1.1,0.1-2.3,0.3-3.4,0.4l-1.4,5.2c-0.9,0.2-1.8,0.3-2.6,0.5l-3.2-4.3c-1.1,0.3-2.2,0.6-3.3,0.9
			l-0.7,5.4c-0.8,0.3-1.7,0.5-2.5,0.8l-3.8-3.8c-1.1,0.4-2.2,0.9-3.2,1.4l0.1,5.5c-0.8,0.4-1.5,0.8-2.2,1.2l-4.3-3.4
			c-1,0.6-2,1.2-3,1.8l0.8,5.5c-0.7,0.4-1.3,0.9-2,1.4l-4.8-2.8c-1,0.7-1.9,1.4-2.8,2.2l1.5,5.4c-0.6,0.5-1.1,1-1.7,1.5l-5.2-2.2
			c-0.9,0.8-1.7,1.7-2.5,2.6l2.2,5.3c-0.5,0.5-0.9,1.1-1.4,1.6l-5.5-1.5c-0.8,1-1.5,1.9-2.2,2.9l2.9,5c-0.4,0.6-0.7,1.1-1.1,1.7
			l-5.7-0.8c-0.6,1.1-1.3,2.1-1.8,3.2l3.6,4.6c-0.3,0.6-0.6,1.1-0.8,1.7l-5.8-0.1c-0.5,1.2-1,2.3-1.4,3.5l4.2,4.1
			c-0.2,0.6-0.4,1.2-0.6,1.7l-5.8,0.7c-0.4,1.2-0.7,2.5-1,3.7l4.7,3.5l-0.3,1.8l-5.6,1.5c-0.2,1.3-0.4,2.6-0.5,3.8l5.1,2.8l-0.1,1.9
			l-5.4,2.2c0,0.5,0,0.9,0,1.4c0,0.9,0,1.7,0.1,2.6l5.3,2.2l0.1,1.7l-4.9,2.8c0.1,1.3,0.3,2.6,0.5,3.9l5.5,1.4c0,0,0,0,0,0
			c0.1,0.6,0.2,1.2,0.3,1.8l-4.4,3.3c0.3,1.3,0.7,2.6,1.1,3.9l5.4,0.7c0.2,0.6,0.4,1.2,0.6,1.8l-3.9,3.8c0.5,1.3,1,2.5,1.6,3.8
			l5.3-0.1c0.3,0.6,0.6,1.2,0.9,1.8l-3.2,4.2c0.7,1.2,1.4,2.4,2.1,3.6l5.1-0.7c0.4,0.6,0.7,1.2,1.1,1.8l-2.6,4.4
			c0.8,1.1,1.7,2.2,2.5,3.3l4.8-1.3c0.5,0.6,1,1.1,1.4,1.7l-1.9,4.5c1,1,2,2,3,3l4.4-1.9c0.6,0.5,1.2,1.1,1.8,1.6l-1.3,4.5
			c1.1,0.9,2.2,1.7,3.3,2.6l3.9-2.3c0.7,0.5,1.4,1,2.1,1.4l-0.6,4.5c1.2,0.7,2.4,1.4,3.6,2.1l3.5-2.7c0.8,0.4,1.5,0.8,2.3,1.2l0,4.3
			c1.3,0.6,2.6,1.1,3.9,1.6l3-3c0.9,0.3,1.7,0.6,2.6,0.9l0.5,4.2c1.3,0.4,2.7,0.8,4.1,1.1l2.5-3.3c0.9,0.2,1.8,0.4,2.7,0.6l1,4
			c1.4,0.2,2.8,0.4,4.2,0.6l2-3.6c0.9,0.1,1.9,0.2,2.8,0.2l1.5,3.8c0.8,0,1.5,0.1,2.3,0.1c0.7,0,1.3,0,2,0l1.5-3.8
			c1,0,1.9-0.1,2.9-0.2l2,3.6c1.4-0.1,2.8-0.3,4.1-0.5l1.1-4.1c0.9-0.2,1.9-0.4,2.8-0.6l2.5,3.4c1.4-0.3,2.7-0.7,4-1.1l0.5-4.2
			c0.9-0.3,1.8-0.6,2.7-0.9l3,3.1c1.3-0.5,2.6-1,3.8-1.6l0-4.4c0.8-0.4,1.6-0.8,2.4-1.2l3.5,2.7c1.2-0.6,2.4-1.3,3.6-2l-0.6-4.5
			c0.7-0.5,1.4-1,2.2-1.5l4,2.3c1.1-0.8,2.2-1.6,3.2-2.5l-1.3-4.6c0.6-0.5,1.3-1.1,1.9-1.7l4.4,1.9c1-0.9,1.9-1.9,2.9-2.8l-1.9-4.5
			c0.5-0.6,1-1.2,1.6-1.8l4.8,1.3c0.8-1,1.6-2.1,2.4-3.1l-2.6-4.4c0.4-0.6,0.8-1.3,1.2-1.9l5.2,0.7c0.7-1.1,1.3-2.2,2-3.4l-3.3-4.2
			c0.3-0.6,0.6-1.3,1-2l5.4,0.1c0.5-1.2,1-2.4,1.5-3.6l-3.9-3.8c0.2-0.7,0.5-1.3,0.7-2l5.5-0.7c0.4-1.2,0.7-2.4,1-3.7l-4.5-3.4
			c0.1-0.7,0.2-1.3,0.4-2l5.5-1.4c0.2-1.2,0.4-2.5,0.5-3.7l-5-2.8c0-0.7,0.1-1.3,0.1-2l5.4-2.2c0-0.8,0.1-1.6,0.1-2.3
			c0-0.5,0-0.9,0-1.4L810,622C809.9,621.3,809.9,620.6,809.8,620z M733.8,701.8c-41.9,0-75.8-33.9-75.8-75.8
			c0-41.9,33.9-75.8,75.8-75.8s75.8,33.9,75.8,75.8C809.6,667.9,775.7,701.8,733.8,701.8z"/>
		<path class="st1" d="M810.7,625.3c0-42.3-34.3-76.5-76.5-76.5c-42.3,0-76.5,34.3-76.5,76.5s34.3,76.5,76.5,76.5
			C776.4,701.9,810.7,667.6,810.7,625.3z M787.4,675.4c-5,5.6-16.1,16.3-30.9,20.2c-1.6,0.4-2.8-1.3-1.9-2.7
			c2.9-4.3,6.5-12.6,5.1-25.5c-0.2-1.6,1.7-2.5,2.9-1.5c4.1,3.5,11.5,7.8,23.3,6.5C787.5,672.4,788.5,674.2,787.4,675.4z
			 M780.2,667.6c-13.3,0-24-10.8-24-24c0-13.3,10.8-24,24-24c13.3,0,24,10.8,24,24C804.2,656.9,793.4,667.6,780.2,667.6z
			 M798.3,591.7c3.6,6.4,9.9,19.8,8.8,34.7c-0.1,1.5-2.1,2.1-3,0.9c-3.1-4-9.5-9.9-21.7-12.7c-1.5-0.3-1.8-2.3-0.5-3.1
			c4.5-2.6,10.7-8.1,13.3-19.3C795.5,590.6,797.5,590.3,798.3,591.7z M790,587.2c0,13.3-10.8,24-24,24c-13.3,0-24-10.8-24-24
			c0-13.3,10.8-24,24-24C779.2,563.2,790,573.9,790,587.2z M719.9,553.4c7.3-1.8,22.5-4.2,36.9,1.1c1.5,0.6,1.5,2.7,0,3.3
			c-4.8,1.9-12.6,6.6-18.8,17.9c-0.8,1.4-2.8,1.1-3.2-0.4c-1.3-5.2-5-13-15.4-18.7C718.1,555.9,718.3,553.8,719.9,553.4z
			 M707.6,559.8c13.3,0,24,10.8,24,24s-10.8,24-24,24c-13.3,0-24-10.8-24-24S694.3,559.8,707.6,559.8z M674.7,582.4
			c1-1.2,2.9-0.5,3,1c0.2,5,2,13.6,10.3,22.9c1,1.1,0.1,2.9-1.4,2.8c-5.2-0.5-13.5,0.4-22,8c-1.2,1-3,0.1-2.8-1.4
			C662.5,608.4,665.2,593.8,674.7,582.4z M662.1,637c0-13.3,10.8-24,24-24c13.3,0,24,10.8,24,24c0,13.3-10.8,24-24,24
			C672.9,661.1,662.1,650.3,662.1,637z M702.5,691.1c-13.7-5.8-22.8-17.5-26.8-23.6c-0.9-1.3,0.3-2.9,1.9-2.6
			c11.1,2.8,18.9-0.2,23.2-3c1.3-0.8,2.9,0.3,2.6,1.8c-3.1,12.1-0.7,20.5,1.4,25.1C705.4,690.2,704,691.7,702.5,691.1z M707.2,674.5
			c0-13.3,10.8-24,24-24c13.3,0,24,10.8,24,24c0,13.3-10.8,24-24,24C717.9,698.5,707.2,687.8,707.2,674.5z"/>
	</g>
	<g id="chain">
		<path class="st60" d="M730.9,542.4c-1.6,0-3.2,0.1-4.7,0.1l-299.6,8.8l0,0l-97.5,2.9c-26.7,1.2-43,16.9-38.8,35.3
			c3.8,16.4,11.8,22.6,86.1,47.1c19.8,6.5,68,23.9,93.3,30c62.7,15.1,107.6,33.6,261.2,39.1c48.8,1.7,84.4-33.3,84.4-79.6
			S777.4,542.4,730.9,542.4z"/>
	</g>
	<g id="frontPedal">
		<circle class="st54" cx="732" cy="625.7" r="5.7"/>
		<g class="st17">
			<path class="st50" d="M855.6,549.2L829.4,503c-0.3-0.5-0.7-0.9-1.1-1.2l-7.1-6.3c-0.9-0.5-2-0.5-2.9,0l-11.9,6.4
				c-1.4,0.8-2,2.6-1.2,4l9.1,16.9c-1.7,3.9-1,9.4,2.1,14.2c2.5,3.8,6,6.4,9.4,7.3l4.9,9.1c0.3,0.6,0.8,1.1,1.4,1.3l9.8,4.2
				c0.8,0.4,1.8,0.3,2.6-0.1l9.8-5.5C855.9,552.5,856.4,550.7,855.6,549.2z"/>
			<path class="st51" d="M831.4,554c0.3,0.6,0.3,0.3,0.9,0.6l9.8,4.2c0.8,0.4,1.8,0.3,2.6-0.1l9.9-5.4c1.4-0.8,1.7-1.7,1.7-1.7
				l0.1-0.6l-10.1-5.2L831.4,554z"/>
		</g>
		<path class="st61" d="M823.1,545.2c-3-1.2-5.9-3.5-8-6.8c-0.7-1.1-1.3-2.3-1.8-3.4l-75.2,75.2c-3.3-0.6-6.9,0.4-9.4,2.9l-6.5,6.6
			c-4.1,4.1-4.1,10.9,0,15l0.8,0.8c4.1,4.1,10.9,4.1,15,0l6.5-6.6c2.2-2.2,3.3-5.3,3.1-8.2c0.2-0.1,0.4-0.3,0.5-0.4L823.1,545.2z
			 M732,633.2c-4.1,0-7.5-3.4-7.5-7.5c0-4.1,3.4-7.5,7.5-7.5c4.1,0,7.5,3.4,7.5,7.5C739.5,629.8,736.2,633.2,732,633.2z"/>
		<path class="st62" d="M855.9,549l-9.9-17.5c0.2-4.9,1.1-8.3-1.2-12.3c-3.1-5.4-4.9-6.3-10.5-8.4l-5.4-9.5
			c-0.3-0.5-0.6-0.9-1.1-1.2l-6.6-4.5c-0.8-0.6-2.1-0.4-2.9,0l11.3,20.4c2.8,0.8,5.8,3.3,7.9,7c2.2,3.9,2.9,8,1.9,10.8l6.8,12.2l9,7
			C856.4,552.2,856.7,550.5,855.9,549z"/>
		<ellipse class="st54" cx="826" cy="530" rx="8.7" ry="8.7"/>
	</g>
</g>
<g id="ANIMACJA">
	<g id="staticRear">
		<linearGradient id="SVGID_16_" gradientUnits="userSpaceOnUse" x1="558.9639" y1="414.5365" x2="745.37" y2="414.5365">
			<stop  offset="0.5753" style="stop-color:#000000"/>
			<stop  offset="0.6659" style="stop-color:#070707"/>
			<stop  offset="0.8002" style="stop-color:#1B1B1B"/>
			<stop  offset="0.961" style="stop-color:#3C3C3C"/>
			<stop  offset="1" style="stop-color:#454545"/>
		</linearGradient>
		<path style="fill:url(#SVGID_16_);" d="M577.8,203.1L627.8,326l117.6,291.4l-20.5,8.6l-35.4-87l-53-132.9L573,248.3l-14-37
			C559,211.2,565.3,205.3,577.8,203.1z"/>
		<linearGradient id="SVGID_17_" gradientUnits="userSpaceOnUse" x1="927.3429" y1="448.1007" x2="906.1141" y2="426.8719">
			<stop  offset="0.5753" style="stop-color:#000000"/>
			<stop  offset="0.6659" style="stop-color:#070707"/>
			<stop  offset="0.8002" style="stop-color:#1B1B1B"/>
			<stop  offset="0.961" style="stop-color:#3C3C3C"/>
			<stop  offset="1" style="stop-color:#454545"/>
		</linearGradient>
		<polygon style="fill:url(#SVGID_17_);" points="1099.5,266.9 997,368.8 883.8,486.8 791.5,582.8 749.8,626 734.8,607.8 768,575.5 
			890,447.8 975.8,359.3 1032,301 1084.9,250.2 		"/>
		<path class="st65" d="M322.4,578.3c0,0,10,8.3,0,16.7c0,0-1.7,1.3-5.7,1.3v6.3c0,0,7,3,16-3c0,0,22.3-0.7,46,0
			c23.7,0.7,348.7,34,348.7,34l2.3-23.3l-79-4.3l-115.7-7.3l-94.3-7.3l-26.3-1.3c0,0-49.3-4.7-51.3-6.7S322.4,578.3,322.4,578.3z"/>
	</g>
	<g id="rotate" class="st0">
		<line class="st6" x1="298.5" y1="574.4" x2="158.5" y2="392.5"/>
		<line class="st6" x1="302.6" y1="569" x2="280" y2="333.5"/>
		<line class="st6" x1="323" y1="329" x2="312.5" y2="562.5"/>
		<line class="st6" x1="369" y1="333.5" x2="344.4" y2="590"/>
		<line class="st6" x1="410.5" y1="342" x2="346" y2="599.4"/>
		<line class="st6" x1="489" y1="387.5" x2="318.3" y2="570.4"/>
		<line class="st6" x1="521" y1="420" x2="346" y2="594"/>
		<line class="st6" x1="549.5" y1="452.5" x2="342" y2="599.4"/>
		<line class="st6" x1="569.5" y1="493" x2="326.8" y2="566.7"/>
		<line class="st6" x1="579.5" y1="538.5" x2="320.5" y2="566.7"/>
		<line class="st6" x1="586" y1="581" x2="329" y2="608.6"/>
		<line class="st6" x1="584" y1="626" x2="323" y2="606"/>
		<line class="st6" x1="572" y1="670.5" x2="335" y2="572.5"/>
		<line class="st6" x1="553.5" y1="709.5" x2="329" y2="562.5"/>
		<line class="st6" x1="529" y1="747.5" x2="304.5" y2="599.4"/>
		<line class="st6" x1="495.5" y1="778.5" x2="310" y2="594.5"/>
		<line class="st6" x1="460.5" y1="808" x2="346" y2="590"/>
		<line class="st6" x1="422" y1="829.5" x2="349.1" y2="578.3"/>
		<line class="st6" x1="374.5" y1="839.5" x2="302" y2="581"/>
		<line class="st6" x1="331.5" y1="846" x2="310" y2="599.4"/>
		<line class="st6" x1="285" y1="843.5" x2="338.3" y2="606"/>
		<line class="st6" x1="240.5" y1="829.5" x2="344.4" y2="594.5"/>
		<polyline class="st6" points="158.5,789 302,590 197.5,813.5 		"/>
		<line class="st6" x1="129" y1="756" x2="331.5" y2="608"/>
		<line class="st6" x1="101.5" y1="720.5" x2="323" y2="611.6"/>
		<line class="st6" x1="82" y1="679.5" x2="302" y2="576"/>
		<line class="st6" x1="71" y1="636" x2="298.5" y2="572.5"/>
		<line class="st6" x1="65" y1="590" x2="304.5" y2="603"/>
		<line class="st6" x1="71" y1="544.5" x2="295.5" y2="599"/>
		<line class="st6" x1="82" y1="500" x2="307" y2="562.5"/>
		<line class="st6" x1="101.5" y1="459.5" x2="310" y2="555.5"/>
		<line class="st6" x1="125" y1="420" x2="295.5" y2="585"/>
		<line class="st6" x1="194.5" y1="365" x2="329" y2="559"/>
		<line class="st6" x1="234" y1="344.5" x2="350.7" y2="580.7"/>
		<line class="st6" x1="1318" y1="314.5" x2="1276" y2="572.5"/>
		<line class="st6" x1="1367" y1="323" x2="1272.5" y2="571.3"/>
		<line class="st6" x1="1413.5" y1="344.5" x2="1301" y2="584.8"/>
		<line class="st6" x1="1456.5" y1="374" x2="1304.5" y2="577.3"/>
		<line class="st6" x1="1493" y1="412.6" x2="1282.1" y2="564"/>
		<line class="st6" x1="1523" y1="452.5" x2="1275.3" y2="564"/>
		<line class="st6" x1="1540.5" y1="500.5" x2="1291.6" y2="590.6"/>
		<line class="st6" x1="1550.5" y1="549" x2="1287.7" y2="585.6"/>
		<line class="st6" x1="1550.5" y1="601" x2="1291.6" y2="560.5"/>
		<line class="st6" x1="1520" y1="696" x2="1279.5" y2="587.9"/>
		<line class="st6" x1="1493" y1="737.5" x2="1273.5" y2="580.8"/>
		<line class="st6" x1="1453.5" y1="773.5" x2="1302.9" y2="566.8"/>
		<line class="st6" x1="1413.5" y1="802.5" x2="1299.9" y2="562.8"/>
		<line class="st6" x1="1318" y1="831" x2="1276" y2="580.8"/>
		<line class="st6" x1="1263.5" y1="831" x2="1304.5" y2="577.3"/>
		<line class="st6" x1="1213" y1="821.5" x2="1304.8" y2="574.4"/>
		<polyline class="st6" points="1165.5,799 1275.3,577.3 1367,821.5 		"/>
		<line class="st6" x1="1124" y1="773.5" x2="1276.9" y2="566.8"/>
		<line class="st6" x1="1090.5" y1="737.5" x2="1301" y2="584.8"/>
		<line class="st6" x1="1058.5" y1="696" x2="1288.5" y2="587.9"/>
		<line class="st6" x1="1042" y1="649.5" x2="1287.7" y2="560.7"/>
		<line class="st6" x1="1032" y1="598" x2="1272.3" y2="561"/>
		<line class="st6" x1="1032" y1="545.6" x2="1282.1" y2="587.9"/>
		<line class="st6" x1="1042" y1="498" x2="1279.5" y2="584.8"/>
		<polyline class="st6" points="1058.5,450.5 1294.9,561 1540.5,649.5 		"/>
		<line class="st6" x1="1090.5" y1="410.5" x2="1299.5" y2="566.8"/>
		<polyline class="st6" points="1164.8,344.5 1275.3,577.3 1126,374 		"/>
		<line class="st6" x1="1213" y1="323" x2="1302.9" y2="569"/>
		<line class="st6" x1="1263.5" y1="314.5" x2="1301" y2="571.3"/>
		<path class="st7" d="M1291.6,304.7c-148.7,0-269.3,119.9-269.3,267.8s120.6,267.8,269.3,267.8s269.3-119.9,269.3-267.8
			S1440.3,304.7,1291.6,304.7z M1291.6,826.1c-140.9,0-255.1-113.6-255.1-253.7s114.2-253.7,255.1-253.7s255.1,113.6,255.1,253.7
			S1432.5,826.1,1291.6,826.1z"/>
		<path class="st7" d="M326.1,318.9c-147.9,0-267.8,119.9-267.8,267.8s119.9,267.8,267.8,267.8s267.8-119.9,267.8-267.8
			S474,318.9,326.1,318.9z M326.1,840.4C186,840.4,72.4,726.8,72.4,586.7S186,333,326.1,333s253.7,113.6,253.7,253.7
			S466.3,840.4,326.1,840.4z"/>
		<path class="st8" d="M326.3,291.1c-163.5,0-296,132.2-296,295.3s132.5,295.3,296,295.3s296-132.2,296-295.3
			S489.8,291.1,326.3,291.1z M326.3,853.4c-147.8,0-267.7-119.5-267.7-267s119.8-267,267.7-267s267.7,119.5,267.7,267
			S474.1,853.4,326.3,853.4z"/>
		<path class="st9" d="M1291.6,277.2c-164,0-296.9,132.2-296.9,295.3s132.9,295.3,296.9,295.3c164,0,296.9-132.2,296.9-295.3
			S1455.6,277.2,1291.6,277.2z M1291.6,839.5c-148.3,0-268.5-119.5-268.5-267s120.2-267,268.5-267s268.5,119.5,268.5,267
			S1439.8,839.5,1291.6,839.5z"/>
		<g class="st17">
			<path class="st50" d="M648.5,736.9l-42-34c-1.3-1-1.4-3-0.3-4.3l8.9-11c0.7-0.8,1.7-1.3,2.8-1.2l12.2,1.3
				c0.6,0.1,1.1,0.3,1.5,0.6l40.5,32.8c1.3,1,1.4,3,0.3,4.3l-8.7,10.8c-0.6,0.7-1.5,1.2-2.4,1.2l-10.9,0.2
				C649.7,737.6,649,737.3,648.5,736.9z"/>
			<path class="st51" d="M648.5,736.9c0.5,0.4,1.2,0.6,1.9,0.6l10.9-0.2c0.9,0,1.8-0.5,2.4-1.2l8.7-10.8c1.1-1.3,0.7-2.2,0.7-2.2
				l0,0l-13.4-0.1L648.5,736.9z"/>
			<path class="st52" d="M615.1,687.5c0.7-0.8,1.7-1.3,2.8-1.2l12.2,1.3c0.6,0.1,1.1,0.3,1.5,0.6l40.5,32.8c1.3,1,1.4,3,0.3,4.3l0,0
				l-10.8-0.9L615.1,687.5z"/>
		</g>
		<path class="st53" d="M741.8,616.6l-0.8-0.8c-4.1-4.1-10.9-4.2-15,0l-6.6,6.5c-2.6,2.5-3.5,6.1-2.9,9.4l-79.7,72.5
			c-0.1,0.1-0.1,0.1-0.1,0.2c-0.6-0.1-1.2-0.2-1.9-0.2c-6.2,0-11.3,5-11.3,11.3s5,11.3,11.3,11.3s11.3-5,11.3-11.3
			c0-0.2,0-0.4,0-0.6c0.3-0.1,0.6-0.3,0.8-0.6l79.8-72.5c0.2-0.2,0.3-0.3,0.4-0.5c3,0.2,6-0.8,8.2-3l6.6-6.5
			C745.9,627.5,745.9,620.7,741.8,616.6z M634.8,721.1c-3.1,0-5.7-2.5-5.7-5.7c0-3.1,2.5-5.7,5.7-5.7s5.7,2.5,5.7,5.7
			C640.4,718.5,637.9,721.1,634.8,721.1z M732,633.2c-4.1,0-7.5-3.4-7.5-7.5c0-4.1,3.4-7.5,7.5-7.5c4.1,0,7.5,3.4,7.5,7.5
			C739.5,629.8,736.1,633.2,732,633.2z"/>
		<circle class="st54" cx="634.8" cy="715.4" r="4.3"/>
		<path class="st2" d="M809.8,620l5.1-2.9c-0.1-1.2-0.3-2.4-0.5-3.6l-5.7-1.5c-0.1-0.7-0.2-1.3-0.4-2l4.7-3.5
			c-0.3-1.2-0.6-2.3-0.9-3.5l-5.8-0.7c-0.2-0.7-0.4-1.3-0.7-1.9l4.2-4.1c-0.4-1.1-0.9-2.2-1.3-3.3l-5.9,0.1
			c-0.3-0.6-0.6-1.3-0.9-1.9l3.6-4.7c-0.6-1-1.1-2-1.7-3l-5.8,0.8c-0.4-0.6-0.8-1.2-1.2-1.9l3-5c-0.7-0.9-1.4-1.9-2.1-2.8l-5.5,1.5
			c-0.5-0.6-1-1.2-1.5-1.8l2.2-5.3c-0.8-0.8-1.6-1.7-2.4-2.5l-5.2,2.2c-0.6-0.5-1.2-1.1-1.8-1.6l1.5-5.5c-0.9-0.7-1.8-1.4-2.7-2.1
			l-4.8,2.8c-0.7-0.5-1.4-1-2.1-1.4l0.8-5.5c-1-0.6-2-1.1-2.9-1.7l-4.3,3.4c-0.8-0.4-1.5-0.8-2.3-1.2l0.1-5.5
			c-1-0.5-2.1-0.9-3.1-1.3l-3.8,3.9c-0.8-0.3-1.7-0.6-2.5-0.9l-0.7-5.4c-1.1-0.3-2.2-0.6-3.3-0.9l-3.2,4.3c-0.9-0.2-1.8-0.4-2.7-0.5
			l-1.4-5.2c-1.1-0.2-2.2-0.3-3.4-0.4l-2.6,4.7c-0.9-0.1-1.8-0.1-2.7-0.2l-2-4.9c-0.5,0-1,0-1.6,0c-0.6,0-1.2,0-1.9,0l-2,4.9
			c-0.9,0-1.8,0.1-2.7,0.2l-2.6-4.7c-1.1,0.1-2.3,0.3-3.4,0.4l-1.4,5.2c-0.9,0.2-1.8,0.3-2.6,0.5l-3.2-4.3c-1.1,0.3-2.2,0.6-3.3,0.9
			l-0.7,5.4c-0.8,0.3-1.7,0.5-2.5,0.8l-3.8-3.8c-1.1,0.4-2.2,0.9-3.2,1.4l0.1,5.5c-0.8,0.4-1.5,0.8-2.2,1.2l-4.3-3.4
			c-1,0.6-2,1.2-3,1.8l0.8,5.5c-0.7,0.4-1.3,0.9-2,1.4l-4.8-2.8c-1,0.7-1.9,1.4-2.8,2.2l1.5,5.4c-0.6,0.5-1.1,1-1.7,1.5l-5.2-2.2
			c-0.9,0.8-1.7,1.7-2.5,2.6l2.2,5.3c-0.5,0.5-0.9,1.1-1.4,1.6l-5.5-1.5c-0.8,1-1.5,1.9-2.2,2.9l2.9,5c-0.4,0.6-0.7,1.1-1.1,1.7
			l-5.7-0.8c-0.6,1.1-1.3,2.1-1.8,3.2l3.6,4.6c-0.3,0.6-0.6,1.1-0.8,1.7l-5.8-0.1c-0.5,1.2-1,2.3-1.4,3.5l4.2,4.1
			c-0.2,0.6-0.4,1.2-0.6,1.7l-5.8,0.7c-0.4,1.2-0.7,2.5-1,3.7l4.7,3.5l-0.3,1.8l-5.6,1.5c-0.2,1.3-0.4,2.6-0.5,3.8l5.1,2.8l-0.1,1.9
			l-5.4,2.2c0,0.5,0,0.9,0,1.4c0,0.9,0,1.7,0.1,2.6l5.3,2.2l0.1,1.7l-4.9,2.8c0.1,1.3,0.3,2.6,0.5,3.9l5.5,1.4c0,0,0,0,0,0
			c0.1,0.6,0.2,1.2,0.3,1.8l-4.4,3.3c0.3,1.3,0.7,2.6,1.1,3.9l5.4,0.7c0.2,0.6,0.4,1.2,0.6,1.8l-3.9,3.8c0.5,1.3,1,2.5,1.6,3.8
			l5.3-0.1c0.3,0.6,0.6,1.2,0.9,1.8l-3.2,4.2c0.7,1.2,1.4,2.4,2.1,3.6l5.1-0.7c0.4,0.6,0.7,1.2,1.1,1.8l-2.6,4.4
			c0.8,1.1,1.7,2.2,2.5,3.3l4.8-1.3c0.5,0.6,1,1.1,1.4,1.7l-1.9,4.5c1,1,2,2,3,3l4.4-1.9c0.6,0.5,1.2,1.1,1.8,1.6l-1.3,4.5
			c1.1,0.9,2.2,1.7,3.3,2.6l3.9-2.3c0.7,0.5,1.4,1,2.1,1.4l-0.6,4.5c1.2,0.7,2.4,1.4,3.6,2.1l3.5-2.7c0.8,0.4,1.5,0.8,2.3,1.2l0,4.3
			c1.3,0.6,2.6,1.1,3.9,1.6l3-3c0.9,0.3,1.7,0.6,2.6,0.9l0.5,4.2c1.3,0.4,2.7,0.8,4.1,1.1l2.5-3.3c0.9,0.2,1.8,0.4,2.7,0.6l1,4
			c1.4,0.2,2.8,0.4,4.2,0.6l2-3.6c0.9,0.1,1.9,0.2,2.8,0.2l1.5,3.8c0.8,0,1.5,0.1,2.3,0.1c0.7,0,1.3,0,2,0l1.5-3.8
			c1,0,1.9-0.1,2.9-0.2l2,3.6c1.4-0.1,2.8-0.3,4.1-0.5l1.1-4.1c0.9-0.2,1.9-0.4,2.8-0.6l2.5,3.4c1.4-0.3,2.7-0.7,4-1.1l0.5-4.2
			c0.9-0.3,1.8-0.6,2.7-0.9l3,3.1c1.3-0.5,2.6-1,3.8-1.6l0-4.4c0.8-0.4,1.6-0.8,2.4-1.2l3.5,2.7c1.2-0.6,2.4-1.3,3.6-2l-0.6-4.5
			c0.7-0.5,1.4-1,2.2-1.5l4,2.3c1.1-0.8,2.2-1.6,3.2-2.5l-1.3-4.6c0.6-0.5,1.3-1.1,1.9-1.7l4.4,1.9c1-0.9,1.9-1.9,2.9-2.8l-1.9-4.5
			c0.5-0.6,1-1.2,1.6-1.8l4.8,1.3c0.8-1,1.6-2.1,2.4-3.1l-2.6-4.4c0.4-0.6,0.8-1.3,1.2-1.9l5.2,0.7c0.7-1.1,1.3-2.2,2-3.4l-3.3-4.2
			c0.3-0.6,0.6-1.3,1-2l5.4,0.1c0.5-1.2,1-2.4,1.5-3.6l-3.9-3.8c0.2-0.7,0.5-1.3,0.7-2l5.5-0.7c0.4-1.2,0.7-2.4,1-3.7l-4.5-3.4
			c0.1-0.7,0.2-1.3,0.4-2l5.5-1.4c0.2-1.2,0.4-2.5,0.5-3.7l-5-2.8c0-0.7,0.1-1.3,0.1-2l5.4-2.2c0-0.8,0.1-1.6,0.1-2.3
			c0-0.5,0-0.9,0-1.4L810,622C809.9,621.3,809.9,620.6,809.8,620z M733.8,701.8c-41.9,0-75.8-33.9-75.8-75.8
			c0-41.9,33.9-75.8,75.8-75.8s75.8,33.9,75.8,75.8C809.6,667.9,775.7,701.8,733.8,701.8z"/>
		<path class="st1" d="M810.7,625.3c0-42.3-34.3-76.5-76.5-76.5c-42.3,0-76.5,34.3-76.5,76.5s34.3,76.5,76.5,76.5
			C776.4,701.9,810.7,667.6,810.7,625.3z M787.4,675.4c-5,5.6-16.1,16.3-30.9,20.2c-1.6,0.4-2.8-1.3-1.9-2.7
			c2.9-4.3,6.5-12.6,5.1-25.5c-0.2-1.6,1.7-2.5,2.9-1.5c4.1,3.5,11.5,7.8,23.3,6.5C787.5,672.4,788.5,674.2,787.4,675.4z
			 M780.2,667.6c-13.3,0-24-10.8-24-24c0-13.3,10.8-24,24-24c13.3,0,24,10.8,24,24C804.2,656.9,793.4,667.6,780.2,667.6z
			 M798.3,591.7c3.6,6.4,9.9,19.8,8.8,34.7c-0.1,1.5-2.1,2.1-3,0.9c-3.1-4-9.5-9.9-21.7-12.7c-1.5-0.3-1.8-2.3-0.5-3.1
			c4.5-2.6,10.7-8.1,13.3-19.3C795.5,590.6,797.5,590.3,798.3,591.7z M790,587.2c0,13.3-10.8,24-24,24c-13.3,0-24-10.8-24-24
			c0-13.3,10.8-24,24-24C779.2,563.2,790,573.9,790,587.2z M719.9,553.4c7.3-1.8,22.5-4.2,36.9,1.1c1.5,0.6,1.5,2.7,0,3.3
			c-4.8,1.9-12.6,6.6-18.8,17.9c-0.8,1.4-2.8,1.1-3.2-0.4c-1.3-5.2-5-13-15.4-18.7C718.1,555.9,718.3,553.8,719.9,553.4z
			 M707.6,559.8c13.3,0,24,10.8,24,24s-10.8,24-24,24c-13.3,0-24-10.8-24-24S694.3,559.8,707.6,559.8z M674.7,582.4
			c1-1.2,2.9-0.5,3,1c0.2,5,2,13.6,10.3,22.9c1,1.1,0.1,2.9-1.4,2.8c-5.2-0.5-13.5,0.4-22,8c-1.2,1-3,0.1-2.8-1.4
			C662.5,608.4,665.2,593.8,674.7,582.4z M662.1,637c0-13.3,10.8-24,24-24c13.3,0,24,10.8,24,24c0,13.3-10.8,24-24,24
			C672.9,661.1,662.1,650.3,662.1,637z M702.5,691.1c-13.7-5.8-22.8-17.5-26.8-23.6c-0.9-1.3,0.3-2.9,1.9-2.6
			c11.1,2.8,18.9-0.2,23.2-3c1.3-0.8,2.9,0.3,2.6,1.8c-3.1,12.1-0.7,20.5,1.4,25.1C705.4,690.2,704,691.7,702.5,691.1z M707.2,674.5
			c0-13.3,10.8-24,24-24c13.3,0,24,10.8,24,24c0,13.3-10.8,24-24,24C717.9,698.5,707.2,687.8,707.2,674.5z"/>
		<circle class="st54" cx="732" cy="625.7" r="5.7"/>
		<g class="st17">
			<path class="st50" d="M855.6,549.2L829.4,503c-0.3-0.5-0.7-0.9-1.1-1.2l-7.1-6.3c-0.9-0.5-2-0.5-2.9,0l-11.9,6.4
				c-1.4,0.8-2,2.6-1.2,4l9.1,16.9c-1.7,3.9-1,9.4,2.1,14.2c2.5,3.8,6,6.4,9.4,7.3l4.9,9.1c0.3,0.6,0.8,1.1,1.4,1.3l9.8,4.2
				c0.8,0.4,1.8,0.3,2.6-0.1l9.8-5.5C855.9,552.5,856.4,550.7,855.6,549.2z"/>
			<path class="st51" d="M831.4,554c0.3,0.6,0.3,0.3,0.9,0.6l9.8,4.2c0.8,0.4,1.8,0.3,2.6-0.1l9.9-5.4c1.4-0.8,1.7-1.7,1.7-1.7
				l0.1-0.6l-10.1-5.2L831.4,554z"/>
		</g>
		<path class="st61" d="M823.1,545.2c-3-1.2-5.9-3.5-8-6.8c-0.7-1.1-1.3-2.3-1.8-3.4l-75.2,75.2c-3.3-0.6-6.9,0.4-9.4,2.9l-6.5,6.6
			c-4.1,4.1-4.1,10.9,0,15l0.8,0.8c4.1,4.1,10.9,4.1,15,0l6.5-6.6c2.2-2.2,3.3-5.3,3.1-8.2c0.2-0.1,0.4-0.3,0.5-0.4L823.1,545.2z
			 M732,633.2c-4.1,0-7.5-3.4-7.5-7.5c0-4.1,3.4-7.5,7.5-7.5c4.1,0,7.5,3.4,7.5,7.5C739.5,629.8,736.2,633.2,732,633.2z"/>
		<path class="st62" d="M855.9,549l-9.9-17.5c0.2-4.9,1.1-8.3-1.2-12.3c-3.1-5.4-4.9-6.3-10.5-8.4l-5.4-9.5
			c-0.3-0.5-0.6-0.9-1.1-1.2l-6.6-4.5c-0.8-0.6-2.1-0.4-2.9,0l11.3,20.4c2.8,0.8,5.8,3.3,7.9,7c2.2,3.9,2.9,8,1.9,10.8l6.8,12.2l9,7
			C856.4,552.2,856.7,550.5,855.9,549z"/>
		<ellipse class="st54" cx="826" cy="530" rx="8.7" ry="8.7"/>
	</g>
	<g id="staticFront" class="st0">
		<path class="st4" d="M333.7,562.9l-55.8-221l-22.8-85.6c0,0,6.8-8.4-4.5-10.4c-11.3-2-13,5.9-11.3,8.1c1.7,2.3,0.6,2.5,6.2,4.7
			l13.6,57.7l26.2,104.1l39.3,142.2L333.7,562.9z"/>
		<path class="st10" d="M691.4,99L691.4,99L691.4,99c-2-0.9-4-1.4-6.2-1.6L669,93.3l-6.9,2.3l13.6,3.5c-6.4,3-10.8,9.5-10.8,17
			c0,5.4,2.3,10.2,5.9,13.7h-31.5c-0.3,0-0.6,0.2-0.6,0.5v4.1c0,0.3,0.3,0.5,0.6,0.5h43.8c0.1,0,0.1,0,0.1,0c0.1,0,0.3,0,0.4,0
			c10.4,0,18.8-8.4,18.8-18.8C702.5,108.5,698,101.9,691.4,99z M683.7,130.7c-8,0-14.5-6.5-14.5-14.5s6.5-14.5,14.5-14.5
			c8,0,14.5,6.5,14.5,14.5S691.7,130.7,683.7,130.7z"/>
		<path class="st16" d="M547,179.4l-3.3-9.7c0-0.1,0-0.2,0-0.4l1.5-4.4c0.1-0.2,0.3-0.4,0.6-0.4c2,0.2,10.3,1,15.4,0
			c0.3-0.1,0.5,0.1,0.6,0.4l2.8,7.3c0.1,0.3,0,0.6-0.3,0.7l-16.6,6.8C547.5,179.9,547.1,179.7,547,179.4z"/>
		<path class="st12" d="M489.8,125.3c0,0-5.7-6-10.9-7c0,0,7.6-0.8,12.4,1.3c0,0,1.2-6.6-19.9-8.7c0,0,17.5-4.1,27.9-3
			c0,0-30.1-15.3-30.1-9c0,0,1,7.3,35.7,0.8c0,0-17.5-14.3-32.2-12.3c-7.8,1.5,25.4,7.8,32.8,0c0,0,0.7-6.2-29.3-6.9
			c0,0,6.7,1.7,14.8-6.6"/>
		<path class="st13" d="M505.2,126.3c0,0-5.7-6-10.9-7c0,0,7.6-0.8,12.4,1.3c0,0,1.2-6.6-19.9-8.7c0,0,17.5-4.1,27.9-3
			c0,0-30.1-15.3-30.1-9c0,0,1,7.3,35.7,0.8c0,0-17.5-14.3-32.2-12.3c-7.8,1.5,25.4,7.8,32.8,0c0,0,0.7-6.2-29.3-6.9
			c0,0,6.7,1.7,14.8-6.6"/>
		<path class="st14" d="M547.6,128.7v15.4c0,6.6,5.1,11.9,11.4,11.9s11.4-5.3,11.4-11.9v-15.4H547.6z"/>
		<path class="st15" d="M696,82.7c0,0-59.7,25-73.8,29.5c-14.2,4.5-20.6,6.4-26.3,7.3c-3.4,0.6-5.2,1.2-11.8-1.3
			c-4.8-1.8-8.5-5.6-11.8-7.6c-3.3-2-10.2-6.3-10.2-6.3s-20.4-6.6-32.8-10.4C516.8,90,483.8,79.8,467,69.7c0,0,36.5-7.9,112.2,18.6
			C579.2,88.3,632,76,696,82.7z"/>
		<path class="st20" d="M577.2,142.9l-3.6-0.2c-1.4-0.1-2.1,0.7-2.1,1.6v0c0,7.2-5.6,13.1-12.5,13.1c-6.9,0-12.5-5.9-12.5-13.1v-1.8
			c0-0.8-0.5-1.8-1.2-1.8l-10.4,0.1c-0.6,0-0.8,0.7-0.8,1.4v4.8c0,0.5,0.1,0.9,0.3,1.3l9.5,17.8l0.7-2c0.1-0.3,0.4-0.4,0.6-0.4
			c2.1,0.2,10.4,1,15.9,0.2v-1.5c0-0.3,0-0.5-0.1-0.8c9.1-0.3,16.5-7.5,17.7-16.8C578.8,143.8,578.1,143,577.2,142.9z"/>
		<g class="st17">
			<path class="st18" d="M474.5,122.4v10c0,0.4,0.3,0.8,0.8,0.8l12.8,0.9l0.3,5.3c0,0.4,0.4,0.8,0.8,0.8l57-0.9v-12.2l-70.8-5.8
				C474.9,121.5,474.5,121.9,474.5,122.4z"/>
			<path class="st18" d="M651.5,124.2c0.1-1.3-1-2.5-2.3-2.6l-5.4-0.3c-1.3-0.1-2.5,1-2.6,2.3l-0.6,11.3l-68.9-5.6v10.9l68.4,4.9
				l-0.1,1.3c-0.1,1.3,1,2.5,2.3,2.6l5.4,0.3c1.3,0.1,2.5-1,2.6-2.3l0.1-1.2c0.4-0.1,0.6-0.4,0.6-0.8v-8.6c0-0.1,0-0.3-0.1-0.4
				L651.5,124.2z"/>
		</g>
		<path class="st19" d="M695.3,82.5c0,0-5.3-17.5-36-18.8s-73,0-73,0S545,61,520.5,55.3s-36-5.5-36-5.5s-15.3,0-18.8,16.4
			c0,0-0.5,3.1,1.9,4c0,0,8.9-1.8,24.1,3.4s57.5,24.9,57.5,24.9s21.8,10.8,28.6,11.4s19.3,1.6,27.9-0.6s23.9-5.4,40.8-11
			S683.8,85,695.3,82.5z"/>
		<path class="st23" d="M1079,62.8l5.5-3.8l43.8-1.5c0,0-0.5,7.8-7.8,13.3s-18.8,10.5-24,12.8s-10.3,4-10.3,4s-1-11.8-8.1-17.3
			c0,0,13.1-4.3,15.6-6.8L1079,62.8z"/>
		<path class="st22" d="M1046.2,60.5l-4.3-10l19.5-9c0,0,8.5-4.4,15.5-0.7c7,3.7,6.2,13.4,6.2,13.4s-0.2,10-14.7,14.5
			s-15.9,5.7-15.9,5.7l-4.8-11.3l13.7-6.2l2.7-1.3l-1.4-2.8L1046.2,60.5z"/>
		<path class="st21" d="M1084.2,40.8l-9.8,0c0,0-13.8-0.4-13.8,9.2c0,8.8,5.1,10.8,6.6,11.2c0.2,0.1,0.5,0.1,0.7,0.1h27l38.9,0.7
			c0.1,0,0.2,0,0.2,0c1,0.1,7.5,0.8,6.7,2.8c-0.8,2.2-6.2,5.3-6.2,5.3l-13.7,8.2c-0.7,0.4-1.2,1.2-1.4,2c-0.5,3.2-0.6,11.2,8.4,13.4
			c0.7,0.2,1.5,0.1,2.1-0.3c4.3-2.4,22-13,26.1-23c4.7-11.3-1.5-17.3-1.5-17.3s-6.8-7.8-22.5-9.5C1116.3,42,1084.2,40.8,1084.2,40.8
			z"/>
		
			<ellipse transform="matrix(0.9938 -0.111 0.111 0.9938 3.1269 123.0216)" class="st14" cx="1106.9" cy="33.4" rx="22.7" ry="7.7"/>
		<path class="st19" d="M1120.8,78.4c0,0-1.7,1.2-0.5,6.8c1.2,5.6,3.9,6.9,3.9,6.9s2,2.1,6.8,1.1c0,0-0.6,3.8-4.9,3.9
			c0,0-21.9,19.1-55.6,31.5c0,0-14.8-2-10.3-20.9c0,0,31.8-20,56.4-28.4c0,0,2.5-4.2,6.5-2.2L1120.8,78.4z"/>
		<path class="st22" d="M1131.2,47.3l-1.3-14.7c0-0.1,0-0.1,0-0.2c0,0.2-0.1,0.4-0.2,0.5c-0.2,0.4-0.6,1-1.2,1.8
			c-3.1,3.2-10.9,6-20.3,7c-11.8,1.3-22.3-0.2-23.7-3.9c-0.1-0.2-0.1-0.3-0.1-0.5c-0.1,0.3-0.1,0.5,0,0.8c0,0.3,0.1,0.6,0.2,0.8
			l0,0.4l1.6,12.4c0,0.2,0,0.3,0,0.5c0.5,4.2,10.9,6.5,23.4,5.1C1122,56,1131.7,51.5,1131.2,47.3z M1086.3,40.8L1086.3,40.8
			C1086.3,40.8,1086.3,40.7,1086.3,40.8C1086.3,40.7,1086.3,40.7,1086.3,40.8z"/>
		<path class="st21" d="M1102.7,133.7c-1.8,0.2-3.4,0.4-5,0.7c0.3-1.5,0.4-3.3-0.7-4.1c-1.2-0.9-3-0.7-4.3-0.4c0-0.1,0-0.2,0-0.2
			l-1.8-4.9c-0.2-0.6-0.8-1-1.5-0.9c-0.3,0-0.6,0.1-0.8,0.1l-20-53.5c-0.3-0.8-1.2-1.2-2-0.9l-13.1,5c-0.8,0.3-1.2,1.2-0.9,2
			l20,53.3c0.1,0.1,0.1,0.3,0.2,0.4c-0.5,0.3-1,0.6-1.3,0.9c-0.6,0.4-0.8,1.1-0.5,1.7l2,4.7c0.1,0.2,0.2,0.3,0.3,0.4
			c-0.4,0.4-0.8,0.7-0.9,1c-0.9,1.8-0.2,3.3,0.6,4.2c-2.5,1.6-4,3-4.8,3.7c-0.3,0.3-0.2,0.7,0.1,0.9l6.3,4.2
			c0.1,0.1,0.2,0.1,0.4,0.1c8.5-0.7,24.3-7.8,26.5-8.9c0.2-0.1,0.3-0.2,0.3-0.4l1.6-8.3C1103.4,134,1103.1,133.7,1102.7,133.7z"/>
		<path class="st19" d="M1076.3,69.5c0,0,8.9,4,9.5,18.9c0,0-26.6,18.1-58.5,25.6c0,0-4.8,5.5-9.6,4.6s-9.8-11.3-9.8-11.3
			s-1.9-8.4,0.8-11s7.4-1.5,7.4-1.5S1038.8,80,1076.3,69.5z"/>
		<path class="st21" d="M1054.3,75.6l-11.6-29.5c1-5.1,5.5-6.8,10.6-4.3l12.4,28.7L1054.3,75.6z"/>
		<linearGradient id="SVGID_18_" gradientUnits="userSpaceOnUse" x1="6.093" y1="451.5" x2="643.1317" y2="451.5">
			<stop  offset="0.5753" style="stop-color:#000000"/>
			<stop  offset="0.6659" style="stop-color:#070707"/>
			<stop  offset="0.8002" style="stop-color:#1B1B1B"/>
			<stop  offset="0.961" style="stop-color:#3C3C3C"/>
			<stop  offset="1" style="stop-color:#454545"/>
		</linearGradient>
		<path class="st41" d="M319,263C164,263,34.9,373.5,6.1,520.1l24.6-4.8c28.5-133.8,148.3-234.2,291.6-234.2
			c164.6,0,303.3,137,303.3,300.3c0,15-1.1,29.8-3.3,44.2l16.3,14.4c2.9-17.4,4.5-35.3,4.5-53.5C643.1,410.3,495.1,263,319,263z"/>
		<linearGradient id="SVGID_19_" gradientUnits="userSpaceOnUse" x1="967.4412" y1="480.317" x2="1294.8652" y2="480.317">
			<stop  offset="0.5753" style="stop-color:#000000"/>
			<stop  offset="0.6659" style="stop-color:#070707"/>
			<stop  offset="0.8002" style="stop-color:#1B1B1B"/>
			<stop  offset="0.961" style="stop-color:#3C3C3C"/>
			<stop  offset="1" style="stop-color:#454545"/>
		</linearGradient>
		<path class="st42" d="M1010,695.7c1-0.9,1.3-2.3,0.7-3.4c-19.4-38.3-30.4-81.3-30.4-126.7c0-160.9,134.4-296.3,303.4-296.3
			c0.5,0,1.1,0,1.6,0c1.3,0,2.4-0.8,2.8-2.1c1.3-4.5,5.3-4.5,6.7-9.1c0.6-1.8-0.8-3.7-2.7-3.7c-1.1,0-2.2,0-3.3,0
			c-177.4,0-321.3,143.8-321.3,321.3c0,45.8,9.6,89.4,26.8,128.8c0.8,1.7,3,2.2,4.5,1L1010,695.7z"/>
		<circle class="st7" cx="319.2" cy="585.9" r="26.9"/>
		<linearGradient id="SVGID_20_" gradientUnits="userSpaceOnUse" x1="826.34" y1="188.9241" x2="825.768" y2="167.0807">
			<stop  offset="0.227" style="stop-color:#454545"/>
			<stop  offset="0.2364" style="stop-color:#414141"/>
			<stop  offset="0.3222" style="stop-color:#252525"/>
			<stop  offset="0.4078" style="stop-color:#101010"/>
			<stop  offset="0.4925" style="stop-color:#040404"/>
			<stop  offset="0.5753" style="stop-color:#000000"/>
			<stop  offset="0.6594" style="stop-color:#030303"/>
			<stop  offset="0.7201" style="stop-color:#0C0C0C"/>
			<stop  offset="0.7735" style="stop-color:#1C1C1C"/>
			<stop  offset="0.8223" style="stop-color:#323232"/>
			<stop  offset="0.8541" style="stop-color:#454545"/>
		</linearGradient>
		<polygon class="st43" points="1062.9,181 938.5,186 589.3,195.1 589.1,175.3 824.9,170.8 1062.9,160.9 		"/>
		<linearGradient id="SVGID_21_" gradientUnits="userSpaceOnUse" x1="1075.8805" y1="182.1338" x2="1075.2526" y2="158.155">
			<stop  offset="0.227" style="stop-color:#454545"/>
			<stop  offset="0.2364" style="stop-color:#414141"/>
			<stop  offset="0.3222" style="stop-color:#252525"/>
			<stop  offset="0.4078" style="stop-color:#101010"/>
			<stop  offset="0.4925" style="stop-color:#040404"/>
			<stop  offset="0.5753" style="stop-color:#000000"/>
			<stop  offset="0.6594" style="stop-color:#030303"/>
			<stop  offset="0.7201" style="stop-color:#0C0C0C"/>
			<stop  offset="0.7735" style="stop-color:#1C1C1C"/>
			<stop  offset="0.8223" style="stop-color:#323232"/>
			<stop  offset="0.8541" style="stop-color:#454545"/>
		</linearGradient>
		<path class="st44" d="M1063.5,182.3V159l13.9-0.9c0,0,10.2,6.5,10.8,23.7L1063.5,182.3z"/>
		<linearGradient id="SVGID_22_" gradientUnits="userSpaceOnUse" x1="1084.8892" y1="248.9468" x2="1115.4246" y2="248.9468">
			<stop  offset="0.5753" style="stop-color:#000000"/>
			<stop  offset="0.6659" style="stop-color:#070707"/>
			<stop  offset="0.8002" style="stop-color:#1B1B1B"/>
			<stop  offset="0.961" style="stop-color:#3C3C3C"/>
			<stop  offset="1" style="stop-color:#454545"/>
		</linearGradient>
		<path class="st45" d="M1084.9,249.1l20.1-18.4c0,0,15.3,5.5,8.8,27.3c0,0-7.5,1.7-12.8,9.4L1084.9,249.1z"/>
		<linearGradient id="SVGID_23_" gradientUnits="userSpaceOnUse" x1="1074.75" y1="203.375" x2="1142" y2="203.375">
			<stop  offset="0.5753" style="stop-color:#000000"/>
			<stop  offset="0.6659" style="stop-color:#070707"/>
			<stop  offset="0.8002" style="stop-color:#1B1B1B"/>
			<stop  offset="0.961" style="stop-color:#3C3C3C"/>
			<stop  offset="1" style="stop-color:#454545"/>
		</linearGradient>
		<path class="st46" d="M1142,252.8L1101.8,143l-27,9l40.7,111.8C1115.4,263.8,1126.8,253,1142,252.8z"/>
		<linearGradient id="SVGID_24_" gradientUnits="userSpaceOnUse" x1="567.9481" y1="210.9389" x2="566.9406" y2="172.4666">
			<stop  offset="3.513514e-02" style="stop-color:#454545"/>
			<stop  offset="0.2514" style="stop-color:#545353"/>
			<stop  offset="0.2631" style="stop-color:#494949"/>
			<stop  offset="0.2757" style="stop-color:#454545"/>
			<stop  offset="0.4728" style="stop-color:#141414"/>
			<stop  offset="0.5753" style="stop-color:#000000"/>
			<stop  offset="0.666" style="stop-color:#030303"/>
			<stop  offset="0.7314" style="stop-color:#0C0C0C"/>
			<stop  offset="0.7888" style="stop-color:#1C1C1C"/>
			<stop  offset="0.8414" style="stop-color:#323232"/>
			<stop  offset="0.8757" style="stop-color:#454545"/>
		</linearGradient>
		<path class="st47" d="M590.5,196.2v-22.3h-23l-1.8-1.3c0,0-16.3,5.7-22,9.5l13.9,29.2c8.4-7.1,20.3-8.9,20.3-8.9l-2.5-6
			L590.5,196.2z"/>
		<path class="st4" d="M507.7,244.2l14.3-25.3c0,0,6.7-12.8,8.7-19.8s6.7-15.7,14.7-13.4c8,2.3,8,9.5,8,9.5s1.3,4.4-4,11.4
			c-5.3,7-12.8,15.7-16.2,20.7c-3.3,5-14.2,25.2-14.2,25.2L501.7,282l-29.3,49.3l-24,40.2L371,503l-29.7,45.3c0,0-8.7,13-9.3,20.7
			c0,0-4.7-10-13.7-8.7l13-17l29-45.7l46-78.7l35.3-62l35-58.7L507.7,244.2z"/>
		<linearGradient id="SVGID_25_" gradientUnits="userSpaceOnUse" x1="1114.8596" y1="412.593" x2="1287.6667" y2="412.593">
			<stop  offset="0.5753" style="stop-color:#000000"/>
			<stop  offset="0.6659" style="stop-color:#070707"/>
			<stop  offset="0.8002" style="stop-color:#1B1B1B"/>
			<stop  offset="0.961" style="stop-color:#3C3C3C"/>
			<stop  offset="1" style="stop-color:#454545"/>
		</linearGradient>
		<path class="st49" d="M1251,536.3c-11-8.7-28-20.3-35.3-40.7c-7.3-20.3-21.3-76.3-21.3-76.3l-24-77.3l-11.5-40.9l0,0l0,0
			l-4.5-15.8l-0.3,0.1l-6-19.8c0,0-0.5-0.2-1.4-0.4l-1.5-4.3c0.4-1-0.5-1.8-0.5-1.8l0.8-1.1c0,0,2.8-4.5-4.5-4.1s-15.1,4-15.1,4
			s-8.2,4.1-10.3,7.9c-2.2,3.8,2.6,4.5,2.6,4.5c0.5,1.8,1.5,1.1,1.5,1.1l1.3,3.4h0.3c-1,1-0.8,1.4-0.8,1.4l17.4,48l37.6,110.2
			c0,0,18.7,63,32.2,81s18.5,27.3,71.8,56l8.3-10.7C1287.7,560.7,1262,545,1251,536.3z"/>
		<path class="st4" d="M321.6,570.4l-55.1-224.3l-23.1-85.6c0,0,6.8-8.4-4.5-10.4s-12.9,5.9-11.3,8.1c1.7,2.3,0.6,2.5,6.3,4.7
			l13.8,57.6l26.5,104l37.5,145.8H321.6z"/>
		<linearGradient id="SVGID_26_" gradientUnits="userSpaceOnUse" x1="446.9676" y1="391.8219" x2="427.5762" y2="380.6263">
			<stop  offset="0" style="stop-color:#000000"/>
			<stop  offset="0.6459" style="stop-color:#1F1F1D"/>
			<stop  offset="1" style="stop-color:#454545"/>
		</linearGradient>
		<path style="display:inline;fill:url(#SVGID_26_);" d="M333.1,583.1c0.9,1.3,2.7,1.4,3.4,0c6.8-13,40.6-76.2,58-106.2
			c20.5-35.3,60.8-104.3,60.8-104.3l47.8-85.5l26-48c0,0,0-0.1,0.1-0.1c0.7-1.1,15.1-24.4,18.7-28c3.8-3.7,5.8-14.2,1.3-17.7
			s-13.5-3.8-15.8,8.3c-2.2,11.7-20.2,39.5-21,40.7c0,0,0,0.1-0.1,0.1L471.5,313L406,426.5l-55.2,93.4c0,0,0,0.1-0.1,0.1
			c-0.8,1.6-27.1,52.7-32.6,52.7C312.9,572.8,323.4,570,333.1,583.1z"/>
		<path class="st4" d="M505,243.7c0,0-6.3,16-15,16s-46.3-2-46.3-2l-107-5.2l-86.5-5.7l-53.5-3.2l-16.8-1.5c0,0-5.2-0.8-5.5,3.3
			c-0.3,4.2,0,10,0,10s2,0.3,9.5,0.3l103,5.3L408,268l58.2,2.8c0,0,34.2,2.8,48.5-7.5c0,0,5.8-4.3,11.3,0.8c0,0,4.5-2.8,3.3-5.3
			c-1.2-2.5-4-7.2-6.7-9C520,248,509.7,240.7,505,243.7z"/>
		<linearGradient id="SVGID_27_" gradientUnits="userSpaceOnUse" x1="348.9322" y1="277.1064" x2="350.839" y2="249.8377">
			<stop  offset="0.6942" style="stop-color:#000000"/>
			<stop  offset="0.7951" style="stop-color:#131313"/>
			<stop  offset="0.9996" style="stop-color:#454545"/>
			<stop  offset="1" style="stop-color:#454545"/>
		</linearGradient>
		<path class="st59" d="M205.8,259c0,0,1,6.5,6.3,6.5s5.8-2,5.8-2s1.8,5,5,4.8s5.5-2.5,5.5-2.5l13.5-2.1c0,0,3.8,4.4,19.3,0
			l65.8,1.1l43.6,1.1l20.8,5.3l17,1.1l49.3,1.8c0,0,27.4,1.6,34.7-2.8c7.3-4.4-2.7-8.7-2.7-8.7L379,256.6c0,0-12.9-6.2-28.7-6.8
			c-15.8-0.6-81.6-4.1-81.6-4.1l-33-1.3C235.8,244.5,199.5,252.5,205.8,259z"/>
		<circle class="st4" cx="1288.5" cy="574.4" r="16.3"/>
		<circle class="st16" cx="1288.6" cy="574.4" r="9"/>
		<circle class="st48" cx="1288.6" cy="574.4" r="5.7"/>
		<radialGradient id="SVGID_28_" cx="317.75" cy="587.3355" r="19.2015" gradientUnits="userSpaceOnUse">
			<stop  offset="0" style="stop-color:#454545"/>
			<stop  offset="5.816852e-02" style="stop-color:#353535"/>
			<stop  offset="0.1653" style="stop-color:#1E1E1E"/>
			<stop  offset="0.2801" style="stop-color:#0D0D0D"/>
			<stop  offset="0.4066" style="stop-color:#030303"/>
			<stop  offset="0.5676" style="stop-color:#000000"/>
		</radialGradient>
		<circle style="display:inline;fill:url(#SVGID_28_);" cx="317.8" cy="587.3" r="19.2"/>
		<circle class="st16" cx="318.3" cy="586.4" r="9"/>
		<circle class="st48" cx="318.3" cy="586.4" r="5.7"/>
		<path class="st19" d="M731.3,196.7l-28.8,0.5c-2.3-10.5-0.8-24.2-0.8-24.2l0.9,0l-0.8-2.1h-11c-2.1,10.5-0.9,20.7,0.3,26.5
			l-65.5,1.2l-0.2-1.2c0,0-2.4-12.6-1.5-23h2.3c0,0-0.1-5.6-1.9-6.9s-10.3,0-10.3,0s-2.1,19,1.2,31.3l-28.8,0.5
			c1.8,17.5,11,41,18.6,58.8l-1.7,3.9c-18.6,0.3-24.8,9.3-24.8,9.3l3.4,8.8h4.5v-1.3c4.8-6.4,19.5-8,19.5-8l3,8.3l5.5,1h117
			C740.3,234.3,731.3,196.7,731.3,196.7z"/>
		<path class="st56" d="M33.2,435.2c0,0,11.8-23.7,17.8-30.5l-11.4-2.4c0,0-5,8-8.4,32.1L33.2,435.2z"/>
		<linearGradient id="SVGID_29_" gradientUnits="userSpaceOnUse" x1="1096.5326" y1="177.3127" x2="1170.3334" y2="177.3127">
			<stop  offset="0.5753" style="stop-color:#000000"/>
			<stop  offset="0.6659" style="stop-color:#070707"/>
			<stop  offset="0.8002" style="stop-color:#1B1B1B"/>
			<stop  offset="0.961" style="stop-color:#3C3C3C"/>
			<stop  offset="1" style="stop-color:#454545"/>
		</linearGradient>
		<path style="display:inline;fill:none;stroke:url(#SVGID_29_);stroke-width:8;stroke-miterlimit:10;" d="M1170.3,180.6h-17
			c0,0-8.3,5-18.7,0c-10.3-5-20.7-10.4-37.7-8.4"/>
		<linearGradient id="SVGID_30_" gradientUnits="userSpaceOnUse" x1="1119.6702" y1="150.0811" x2="1197.5" y2="150.0811">
			<stop  offset="0.5753" style="stop-color:#000000"/>
			<stop  offset="0.6659" style="stop-color:#070707"/>
			<stop  offset="0.8002" style="stop-color:#1B1B1B"/>
			<stop  offset="0.961" style="stop-color:#3C3C3C"/>
			<stop  offset="1" style="stop-color:#454545"/>
		</linearGradient>
		<path class="st66" d="M1123.6,161.3c-5.3-4.8-5.2-13.1,0.2-17.7c10.4-8.9,28.3-21.6,46.2-21.6h20.3c4,0,7.3,3.2,7.3,7.3v41.1
			c0,4.2-3.4,7.6-7.6,7.6h-19.3c-0.4,0-0.8,0-1.1,0C1166.1,178.3,1143.9,179.6,1123.6,161.3z"/>
		<path class="st60" d="M730.9,542.4c-1.6,0-3.2,0.1-4.7,0.1l-299.6,8.8l0,0l-97.5,2.9c-26.7,1.2-43,16.9-38.8,35.3
			c3.8,16.4,11.8,22.6,86.1,47.1c19.8,6.5,68,23.9,93.3,30c62.7,15.1,107.6,33.6,261.2,39.1c48.8,1.7,84.4-33.3,84.4-79.6
			S777.4,542.4,730.9,542.4z"/>
	</g>
</g>
</svg>
