<?xml version="1.0" encoding="utf-8"?>
<!-- Generator: Adobe Illustrator 21.0.0, SVG Export Plug-In . SVG Version: 6.00 Build 0)  -->
<svg version="1.1" xmlns="http://www.w3.org/2000/svg" xmlns:xlink="http://www.w3.org/1999/xlink" x="0px" y="0px"
	 viewBox="0 0 592 590.5" style="enable-background:new 0 0 592 590.5;" xml:space="preserve">
<style type="text/css">
	.st0{display:none;}
	.st1{display:inline;fill:#C1C1C1;}
	.st2{display:inline;fill:#6D6D6D;}
	.st3{display:inline;fill:#B2ACAA;}
	.st4{display:inline;fill:#0A0B10;}
	.st5{display:inline;fill:none;stroke:#848484;stroke-width:8;stroke-linecap:round;stroke-linejoin:round;stroke-miterlimit:10;}
	.st6{display:inline;fill:none;stroke:#7F7F7F;stroke-miterlimit:10;}
	.st7{display:inline;fill:#BCB8B7;}
	.st8{display:inline;fill:#403326;}
	.st9{display:inline;fill:#3C332F;}
	.st10{display:inline;fill:#B2B1B1;}
	.st11{display:inline;fill:#C5C1BD;}
	.st12{display:inline;fill:none;stroke:#9B9998;stroke-width:4;stroke-linejoin:round;stroke-miterlimit:10;}
	.st13{display:inline;fill:none;stroke:#B2B1B1;stroke-width:4;stroke-linejoin:round;stroke-miterlimit:10;}
	.st14{display:inline;fill:#C1BDBC;}
	.st15{display:inline;fill:#51200D;}
	.st16{display:inline;fill:#817972;}
	.st17{display:inline;}
	.st18{fill:#958F85;}
	.st19{display:inline;fill:#835149;}
	.st20{display:inline;fill:#828282;}
	.st21{display:inline;fill:#D3CBC9;}
	.st22{display:inline;fill:#887F7B;}
	.st23{display:inline;fill:#C1BCBC;}
	.st24{display:inline;fill:url(#SVGID_1_);}
	.st25{display:inline;fill:url(#SVGID_2_);}
	.st26{display:inline;fill:url(#SVGID_3_);}
	.st27{display:inline;fill:url(#SVGID_4_);}
	.st28{display:inline;fill:url(#SVGID_5_);}
	.st29{display:inline;fill:url(#SVGID_6_);}
	.st30{display:inline;fill:url(#SVGID_7_);}
	.st31{display:inline;fill:url(#SVGID_8_);}
	.st32{display:inline;fill:url(#SVGID_9_);}
	.st33{display:inline;fill:url(#SVGID_10_);}
	.st34{display:inline;fill:url(#SVGID_11_);}
	.st35{display:inline;fill:url(#SVGID_12_);}
	.st36{display:inline;fill:url(#SVGID_13_);}
	.st37{display:inline;fill:url(#SVGID_14_);}
	.st38{display:inline;fill:url(#SVGID_15_);}
	.st39{display:inline;fill:url(#SVGID_16_);}
	.st40{display:inline;fill:url(#SVGID_17_);}
	.st41{display:inline;fill:url(#SVGID_18_);}
	.st42{display:inline;fill:url(#SVGID_19_);}
	.st43{display:inline;fill:url(#SVGID_20_);}
	.st44{display:inline;fill:url(#SVGID_21_);}
	.st45{display:inline;fill:url(#SVGID_22_);}
	.st46{display:inline;fill:url(#SVGID_23_);}
	.st47{display:inline;fill:url(#SVGID_24_);}
	.st48{display:inline;fill:#A59E98;}
	.st49{display:inline;fill:url(#SVGID_25_);}
	.st50{fill:#A09895;}
	.st51{fill:#827D7D;}
	.st52{fill:#726E6E;}
	.st53{display:inline;fill:#939393;}
	.st54{display:inline;fill:#827D7D;}
	.st55{display:inline;fill:none;stroke:#C7C0B8;stroke-width:3.1111;stroke-linejoin:round;stroke-miterlimit:10;}
	.st56{display:inline;fill:#DB2916;}
	.st57{fill:#938C8A;}
	.st58{display:inline;fill:none;stroke:url(#SVGID_26_);stroke-width:8;stroke-miterlimit:10;}
	.st59{display:inline;fill:url(#SVGID_27_);}
	.st60{display:inline;fill:none;stroke:#53494D;stroke-width:7;stroke-miterlimit:10;}
	.st61{display:inline;fill:#9B9B9B;}
	.st62{display:inline;fill:#726E6E;}
	.st63{display:inline;fill:url(#SVGID_28_);}
	.st64{display:inline;fill:url(#SVGID_29_);}
	.st65{fill:none;stroke:#7F7F7F;stroke-miterlimit:10;}
	.st66{fill:#BCB8B7;}
	.st67{fill:#403326;}
	.st68{display:inline;fill:url(#SVGID_30_);}
	.st69{display:inline;fill:url(#SVGID_31_);}
	.st70{display:inline;fill:url(#SVGID_32_);}
	.st71{display:inline;fill:url(#SVGID_33_);}
	.st72{display:inline;fill:url(#SVGID_34_);}
	.st73{display:inline;fill:url(#SVGID_35_);}
	.st74{display:inline;fill:url(#SVGID_36_);}
	.st75{display:inline;fill:url(#SVGID_37_);}
	.st76{display:inline;fill:url(#SVGID_38_);}
	.st77{display:inline;fill:url(#SVGID_39_);}
	.st78{display:inline;fill:url(#SVGID_40_);}
	.st79{display:inline;fill:none;stroke:url(#SVGID_41_);stroke-width:8;stroke-miterlimit:10;}
	.st80{display:inline;fill:url(#SVGID_42_);}
</style>
<g id="wzór" class="st0">
</g>
<g id="kopie_x2F_zapas" class="st0">
</g>
<g id="spod" class="st0">
	<path class="st4" d="M303.4,271.8l-55.8-221l-22.8-85.6c0,0,6.8-8.4-4.5-10.4s-13,5.9-11.3,8.1c1.7,2.3,0.6,2.5,6.2,4.7l13.6,57.7
		L255,129.3l39.3,142.2L303.4,271.8z"/>
	<path class="st4" d="M303.4,271.8l-55.8-221l-22.8-85.6c0,0,6.8-8.4-4.5-10.4s-13,5.9-11.3,8.1c1.7,2.3,0.6,2.5,6.2,4.7l13.6,57.7
		L255,129.3l39.3,142.2L303.4,271.8z"/>
	<path class="st4" d="M303.4,271.8l-55.8-221l-22.8-85.6c0,0,6.8-8.4-4.5-10.4s-13,5.9-11.3,8.1c1.7,2.3,0.6,2.5,6.2,4.7l13.6,57.7
		L255,129.3l39.3,142.2L303.4,271.8z"/>
</g>
<g id="rowa" class="st0">
	<g id="szprychy">
		<line class="st6" x1="268.2" y1="283.3" x2="128.2" y2="101.4"/>
		<line class="st6" x1="272.3" y1="277.9" x2="249.7" y2="42.4"/>
		<line class="st6" x1="292.7" y1="37.9" x2="282.2" y2="271.4"/>
		<line class="st6" x1="338.7" y1="42.4" x2="314.1" y2="298.9"/>
		<line class="st6" x1="380.2" y1="50.9" x2="315.7" y2="308.3"/>
		<line class="st6" x1="458.7" y1="96.4" x2="288" y2="279.3"/>
		<line class="st6" x1="490.7" y1="128.9" x2="315.7" y2="302.9"/>
		<line class="st6" x1="519.2" y1="161.4" x2="311.7" y2="308.3"/>
		<line class="st6" x1="539.2" y1="201.9" x2="296.5" y2="275.5"/>
		<line class="st6" x1="549.2" y1="247.4" x2="290.2" y2="275.5"/>
		<line class="st6" x1="555.7" y1="289.9" x2="298.7" y2="317.5"/>
		<line class="st6" x1="553.7" y1="334.9" x2="292.7" y2="314.9"/>
		<line class="st6" x1="541.7" y1="379.4" x2="304.7" y2="281.4"/>
		<line class="st6" x1="523.2" y1="418.4" x2="298.7" y2="271.4"/>
		<line class="st6" x1="498.7" y1="456.4" x2="274.2" y2="308.3"/>
		<line class="st6" x1="465.2" y1="487.4" x2="279.7" y2="303.4"/>
		<line class="st6" x1="430.2" y1="516.9" x2="315.7" y2="298.9"/>
		<line class="st6" x1="391.7" y1="538.4" x2="318.8" y2="287.2"/>
		<line class="st6" x1="344.2" y1="548.4" x2="271.7" y2="289.9"/>
		<line class="st6" x1="301.2" y1="554.9" x2="279.7" y2="308.3"/>
		<line class="st6" x1="254.7" y1="552.4" x2="308" y2="314.9"/>
		<line class="st6" x1="210.2" y1="538.4" x2="314.1" y2="303.4"/>
		<polyline class="st6" points="128.2,497.9 271.7,298.9 167.2,522.4 		"/>
		<line class="st6" x1="98.7" y1="464.9" x2="301.2" y2="316.9"/>
		<line class="st6" x1="71.2" y1="429.4" x2="292.7" y2="320.5"/>
		<line class="st6" x1="51.7" y1="388.4" x2="271.7" y2="284.9"/>
		<line class="st6" x1="40.7" y1="344.9" x2="268.2" y2="281.4"/>
		<line class="st6" x1="34.7" y1="298.9" x2="274.2" y2="311.9"/>
		<line class="st6" x1="40.7" y1="253.4" x2="265.2" y2="307.9"/>
		<line class="st6" x1="51.7" y1="208.9" x2="276.7" y2="271.4"/>
		<line class="st6" x1="71.2" y1="168.4" x2="279.7" y2="264.4"/>
		<line class="st6" x1="94.7" y1="128.9" x2="265.2" y2="293.9"/>
		<line class="st6" x1="164.2" y1="73.9" x2="298.7" y2="267.8"/>
		<line class="st6" x1="203.7" y1="53.4" x2="320.4" y2="289.5"/>
	</g>
	<g id="wheels">
		<path class="st7" d="M295.8,27.8C147.9,27.8,28,147.7,28,295.6s119.9,267.8,267.8,267.8s267.8-119.9,267.8-267.8
			S443.7,27.8,295.8,27.8z M295.8,549.2c-140.1,0-253.7-113.6-253.7-253.7S155.7,41.9,295.8,41.9s253.7,113.6,253.7,253.7
			S436,549.2,295.8,549.2z"/>
		<path class="st8" d="M296,0C132.5,0,0,132.2,0,295.3s132.5,295.3,296,295.3s296-132.2,296-295.3S459.5,0,296,0z M296,562.3
			c-147.8,0-267.7-119.5-267.7-267s119.8-267,267.7-267s267.7,119.5,267.7,267S443.8,562.3,296,562.3z"/>
	</g>
	<g id="sit">
	</g>
	<g id="steer">
	</g>
	<g id="blotniki">
		<linearGradient id="SVGID_1_" gradientUnits="userSpaceOnUse" x1="-24.1989" y1="160.375" x2="612.8398" y2="160.375">
			<stop  offset="0.5753" style="stop-color:#000000"/>
			<stop  offset="0.6659" style="stop-color:#070707"/>
			<stop  offset="0.8002" style="stop-color:#1B1B1B"/>
			<stop  offset="0.961" style="stop-color:#3C3C3C"/>
			<stop  offset="1" style="stop-color:#454545"/>
		</linearGradient>
		<path class="st24" d="M288.7-28.1c-155,0-284.1,110.5-312.9,257.1l24.6-4.8C28.9,90.3,148.6-10.1,292-10.1
			c164.6,0,303.3,137,303.3,300.3c0,15-1.1,29.8-3.3,44.2l16.3,14.4c2.9-17.4,4.5-35.3,4.5-53.5C612.8,119.2,464.8-28.1,288.7-28.1z
			"/>
	</g>
	<g id="frame">
		<circle class="st7" cx="289" cy="294.8" r="26.9"/>
		<linearGradient id="SVGID_2_" gradientUnits="userSpaceOnUse" x1="528.672" y1="123.4115" x2="715.0781" y2="123.4115">
			<stop  offset="0.5753" style="stop-color:#000000"/>
			<stop  offset="0.6659" style="stop-color:#070707"/>
			<stop  offset="0.8002" style="stop-color:#1B1B1B"/>
			<stop  offset="0.961" style="stop-color:#3C3C3C"/>
			<stop  offset="1" style="stop-color:#454545"/>
		</linearGradient>
		<path class="st25" d="M547.6-88.1l49.9,122.9l117.6,291.4l-20.5,8.6l-35.4-87l-53-132.9L542.7-42.9l-14-37
			C528.7-79.9,535-85.8,547.6-88.1z"/>
		<path class="st4" d="M292.1,287.2c0,0,10,8.3,0,16.7c0,0-1.7,1.3-5.7,1.3v6.3c0,0,7,3,16-3c0,0,22.3-0.7,46,0
			c23.7,0.7,348.7,34,348.7,34l2.3-23.3l-79-4.3l-115.7-7.3l-94.3-7.3l-26.3-1.3c0,0-49.3-4.7-51.3-6.7S292.1,287.2,292.1,287.2z"/>
		<path class="st4" d="M477.4-47l14.3-25.3c0,0,6.7-12.8,8.7-19.8s6.7-15.7,14.7-13.4c8,2.3,8,9.5,8,9.5s1.3,4.4-4,11.4
			c-5.3,7-12.8,15.7-16.2,20.7c-3.3,5-14.2,25.2-14.2,25.2L471.4-9.1L442,40.2l-24,40.2l-77.3,131.5L311,257.2c0,0-8.7,13-9.3,20.7
			c0,0-4.7-10-13.7-8.7l13-17l29-45.7l46-78.7l35.3-62l35-58.7L477.4-47z"/>
		<path class="st4" d="M291.3,279.3L236.2,55l-23.1-85.6c0,0,6.8-8.4-4.5-10.4c-11.3-2-12.9,5.9-11.3,8.1c1.7,2.3,0.6,2.5,6.3,4.7
			l13.8,57.6l26.5,104l37.5,145.8H291.3z"/>
		<linearGradient id="SVGID_3_" gradientUnits="userSpaceOnUse" x1="416.6757" y1="100.6969" x2="397.2843" y2="89.5013">
			<stop  offset="0" style="stop-color:#000000"/>
			<stop  offset="0.6459" style="stop-color:#1F1F1D"/>
			<stop  offset="1" style="stop-color:#454545"/>
		</linearGradient>
		<path class="st26" d="M302.8,292c0.9,1.3,2.7,1.4,3.4,0c6.8-13,40.6-76.2,58-106.2C384.7,150.6,425,81.6,425,81.6l47.8-85.5l26-48
			c0,0,0-0.1,0.1-0.1c0.7-1.1,15.1-24.4,18.7-28c3.8-3.7,5.8-14.2,1.3-17.7s-13.5-3.8-15.8,8.3c-2.2,11.7-20.2,39.5-21,40.7
			c0,0,0,0.1-0.1,0.1l-40.7,70.5l-65.5,113.5l-55.2,93.4c0,0,0,0.1-0.1,0.1c-0.8,1.6-27.1,52.7-32.6,52.7
			C282.6,281.7,293.1,278.9,302.8,292z"/>
		<radialGradient id="SVGID_4_" cx="287.4581" cy="296.2105" r="19.2015" gradientUnits="userSpaceOnUse">
			<stop  offset="0" style="stop-color:#454545"/>
			<stop  offset="5.816852e-02" style="stop-color:#353535"/>
			<stop  offset="0.1653" style="stop-color:#1E1E1E"/>
			<stop  offset="0.2801" style="stop-color:#0D0D0D"/>
			<stop  offset="0.4066" style="stop-color:#030303"/>
			<stop  offset="0.5676" style="stop-color:#000000"/>
		</radialGradient>
		<circle class="st27" cx="287.5" cy="296.2" r="19.2"/>
		<circle class="st16" cx="288" cy="295.3" r="9"/>
		<circle class="st48" cx="288" cy="295.3" r="5.7"/>
	</g>
	<g id="rearPedal">
		<g class="st17">
			<path class="st50" d="M618.2,445.8l-42-34c-1.3-1-1.4-3-0.3-4.3l8.9-11c0.7-0.8,1.7-1.3,2.8-1.2l12.2,1.3
				c0.6,0.1,1.1,0.3,1.5,0.6l40.5,32.8c1.3,1,1.4,3,0.3,4.3l-8.7,10.8c-0.6,0.7-1.5,1.2-2.4,1.2l-10.9,0.2
				C619.4,446.4,618.7,446.2,618.2,445.8z"/>
			<path class="st52" d="M584.8,396.4c0.7-0.8,1.7-1.3,2.8-1.2l12.2,1.3c0.6,0.1,1.1,0.3,1.5,0.6l40.5,32.8c1.3,1,1.4,3,0.3,4.3l0,0
				l-10.8-0.9L584.8,396.4z"/>
		</g>
	</g>
	<g id="dodatki">
		<path class="st56" d="M2.9,144.1c0,0,11.8-23.7,17.8-30.5l-11.4-2.4c0,0-5,8-8.4,32.1L2.9,144.1z"/>
	</g>
	<g id="mainGear">
	</g>
	<g id="chain">
		<path class="st60" d="M700.6,251.3c-1.6,0-3.2,0.1-4.7,0.1l-299.6,8.8l0,0l-97.5,2.9c-26.7,1.2-43,16.9-38.8,35.3
			c3.8,16.4,11.8,22.6,86.1,47.1c19.8,6.5,68,23.9,93.3,30c62.7,15.1,107.6,33.6,261.2,39.1c48.8,1.7,84.4-33.3,84.4-79.6
			S747.2,251.3,700.6,251.3z"/>
	</g>
	<g id="frontPedal">
	</g>
</g>
<g id="ANIMACJA">
	<g id="staticRear" class="st0">
		<linearGradient id="SVGID_5_" gradientUnits="userSpaceOnUse" x1="528.672" y1="123.4115" x2="715.0781" y2="123.4115">
			<stop  offset="0.5753" style="stop-color:#000000"/>
			<stop  offset="0.6659" style="stop-color:#070707"/>
			<stop  offset="0.8002" style="stop-color:#1B1B1B"/>
			<stop  offset="0.961" style="stop-color:#3C3C3C"/>
			<stop  offset="1" style="stop-color:#454545"/>
		</linearGradient>
		<path class="st28" d="M547.6-88.1l49.9,122.9l117.6,291.4l-20.5,8.6l-35.4-87l-53-132.9L542.7-42.9l-14-37
			C528.7-79.9,535-85.8,547.6-88.1z"/>
		<path class="st4" d="M292.1,287.2c0,0,10,8.3,0,16.7c0,0-1.7,1.3-5.7,1.3v6.3c0,0,7,3,16-3c0,0,22.3-0.7,46,0
			c23.7,0.7,348.7,34,348.7,34l2.3-23.3l-79-4.3l-115.7-7.3l-94.3-7.3l-26.3-1.3c0,0-49.3-4.7-51.3-6.7S292.1,287.2,292.1,287.2z"/>
	</g>
	<g id="pedalsAndChain" class="st0">
		<g class="st17">
			<path class="st50" d="M618.2,445.8l-42-34c-1.3-1-1.4-3-0.3-4.3l8.9-11c0.7-0.8,1.7-1.3,2.8-1.2l12.2,1.3
				c0.6,0.1,1.1,0.3,1.5,0.6l40.5,32.8c1.3,1,1.4,3,0.3,4.3l-8.7,10.8c-0.6,0.7-1.5,1.2-2.4,1.2l-10.9,0.2
				C619.4,446.4,618.7,446.2,618.2,445.8z"/>
			<path class="st52" d="M584.8,396.4c0.7-0.8,1.7-1.3,2.8-1.2l12.2,1.3c0.6,0.1,1.1,0.3,1.5,0.6l40.5,32.8c1.3,1,1.4,3,0.3,4.3l0,0
				l-10.8-0.9L584.8,396.4z"/>
		</g>
	</g>
	<g id="wheelFront" class="st0">
	</g>
	<g id="wheelRear">
		<line class="st65" x1="268.2" y1="283.3" x2="128.2" y2="101.4"/>
		<line class="st65" x1="272.3" y1="277.9" x2="249.7" y2="42.4"/>
		<line class="st65" x1="292.7" y1="37.9" x2="282.2" y2="271.4"/>
		<line class="st65" x1="338.7" y1="42.4" x2="314.1" y2="298.9"/>
		<line class="st65" x1="380.2" y1="50.9" x2="315.7" y2="308.3"/>
		<line class="st65" x1="458.7" y1="96.4" x2="288" y2="279.3"/>
		<line class="st65" x1="490.7" y1="128.9" x2="315.7" y2="302.9"/>
		<line class="st65" x1="519.2" y1="161.4" x2="311.7" y2="308.3"/>
		<line class="st65" x1="539.2" y1="201.9" x2="296.5" y2="275.5"/>
		<line class="st65" x1="549.2" y1="247.4" x2="290.2" y2="275.5"/>
		<line class="st65" x1="555.7" y1="289.9" x2="298.7" y2="317.5"/>
		<line class="st65" x1="553.7" y1="334.9" x2="292.7" y2="314.9"/>
		<line class="st65" x1="541.7" y1="379.4" x2="304.7" y2="281.4"/>
		<line class="st65" x1="523.2" y1="418.4" x2="298.7" y2="271.4"/>
		<line class="st65" x1="498.7" y1="456.4" x2="274.2" y2="308.3"/>
		<line class="st65" x1="465.2" y1="487.4" x2="279.7" y2="303.4"/>
		<line class="st65" x1="430.2" y1="516.9" x2="315.7" y2="298.9"/>
		<line class="st65" x1="391.7" y1="538.4" x2="318.8" y2="287.2"/>
		<line class="st65" x1="344.2" y1="548.4" x2="271.7" y2="289.9"/>
		<line class="st65" x1="301.2" y1="554.9" x2="279.7" y2="308.3"/>
		<line class="st65" x1="254.7" y1="552.4" x2="308" y2="314.9"/>
		<line class="st65" x1="210.2" y1="538.4" x2="314.1" y2="303.4"/>
		<polyline class="st65" points="128.2,497.9 271.7,298.9 167.2,522.4 		"/>
		<line class="st65" x1="98.7" y1="464.9" x2="301.2" y2="316.9"/>
		<line class="st65" x1="71.2" y1="429.4" x2="292.7" y2="320.5"/>
		<line class="st65" x1="51.7" y1="388.4" x2="271.7" y2="284.9"/>
		<line class="st65" x1="40.7" y1="344.9" x2="268.2" y2="281.4"/>
		<line class="st65" x1="34.7" y1="298.9" x2="274.2" y2="311.9"/>
		<line class="st65" x1="40.7" y1="253.4" x2="265.2" y2="307.9"/>
		<line class="st65" x1="51.7" y1="208.9" x2="276.7" y2="271.4"/>
		<line class="st65" x1="71.2" y1="168.4" x2="279.7" y2="264.4"/>
		<line class="st65" x1="94.7" y1="128.9" x2="265.2" y2="293.9"/>
		<line class="st65" x1="164.2" y1="73.9" x2="298.7" y2="267.8"/>
		<line class="st65" x1="203.7" y1="53.4" x2="320.4" y2="289.5"/>
		<path class="st66" d="M295.8,27.8C147.9,27.8,28,147.7,28,295.6s119.9,267.8,267.8,267.8s267.8-119.9,267.8-267.8
			S443.7,27.8,295.8,27.8z M295.8,549.2c-140.1,0-253.7-113.6-253.7-253.7S155.7,41.9,295.8,41.9s253.7,113.6,253.7,253.7
			S436,549.2,295.8,549.2z"/>
		<path class="st67" d="M296,0C132.5,0,0,132.2,0,295.3s132.5,295.3,296,295.3s296-132.2,296-295.3S459.5,0,296,0z M296,562.3
			c-147.8,0-267.7-119.5-267.7-267s119.8-267,267.7-267s267.7,119.5,267.7,267S443.8,562.3,296,562.3z"/>
	</g>
	<g id="staticFront" class="st0">
		<path class="st4" d="M303.4,271.8l-55.8-221l-22.8-85.6c0,0,6.8-8.4-4.5-10.4s-13,5.9-11.3,8.1c1.7,2.3,0.6,2.5,6.2,4.7l13.6,57.7
			L255,129.3l39.3,142.2L303.4,271.8z"/>
		<linearGradient id="SVGID_6_" gradientUnits="userSpaceOnUse" x1="-24.1989" y1="160.375" x2="612.8398" y2="160.375">
			<stop  offset="0.5753" style="stop-color:#000000"/>
			<stop  offset="0.6659" style="stop-color:#070707"/>
			<stop  offset="0.8002" style="stop-color:#1B1B1B"/>
			<stop  offset="0.961" style="stop-color:#3C3C3C"/>
			<stop  offset="1" style="stop-color:#454545"/>
		</linearGradient>
		<path class="st29" d="M288.7-28.1c-155,0-284.1,110.5-312.9,257.1l24.6-4.8C28.9,90.3,148.6-10.1,292-10.1
			c164.6,0,303.3,137,303.3,300.3c0,15-1.1,29.8-3.3,44.2l16.3,14.4c2.9-17.4,4.5-35.3,4.5-53.5C612.8,119.2,464.8-28.1,288.7-28.1z
			"/>
		<circle class="st7" cx="289" cy="294.8" r="26.9"/>
		<path class="st4" d="M477.4-47l14.3-25.3c0,0,6.7-12.8,8.7-19.8s6.7-15.7,14.7-13.4c8,2.3,8,9.5,8,9.5s1.3,4.4-4,11.4
			c-5.3,7-12.8,15.7-16.2,20.7c-3.3,5-14.2,25.2-14.2,25.2L471.4-9.1L442,40.2l-24,40.2l-77.3,131.5L311,257.2c0,0-8.7,13-9.3,20.7
			c0,0-4.7-10-13.7-8.7l13-17l29-45.7l46-78.7l35.3-62l35-58.7L477.4-47z"/>
		<path class="st4" d="M291.3,279.3L236.2,55l-23.1-85.6c0,0,6.8-8.4-4.5-10.4c-11.3-2-12.9,5.9-11.3,8.1c1.7,2.3,0.6,2.5,6.3,4.7
			l13.8,57.6l26.5,104l37.5,145.8H291.3z"/>
		<linearGradient id="SVGID_7_" gradientUnits="userSpaceOnUse" x1="416.6757" y1="100.6969" x2="397.2843" y2="89.5013">
			<stop  offset="0" style="stop-color:#000000"/>
			<stop  offset="0.6459" style="stop-color:#1F1F1D"/>
			<stop  offset="1" style="stop-color:#454545"/>
		</linearGradient>
		<path class="st30" d="M302.8,292c0.9,1.3,2.7,1.4,3.4,0c6.8-13,40.6-76.2,58-106.2C384.7,150.6,425,81.6,425,81.6l47.8-85.5l26-48
			c0,0,0-0.1,0.1-0.1c0.7-1.1,15.1-24.4,18.7-28c3.8-3.7,5.8-14.2,1.3-17.7s-13.5-3.8-15.8,8.3c-2.2,11.7-20.2,39.5-21,40.7
			c0,0,0,0.1-0.1,0.1l-40.7,70.5l-65.5,113.5l-55.2,93.4c0,0,0,0.1-0.1,0.1c-0.8,1.6-27.1,52.7-32.6,52.7
			C282.6,281.7,293.1,278.9,302.8,292z"/>
		<radialGradient id="SVGID_8_" cx="287.4581" cy="296.2105" r="19.2015" gradientUnits="userSpaceOnUse">
			<stop  offset="0" style="stop-color:#454545"/>
			<stop  offset="5.816852e-02" style="stop-color:#353535"/>
			<stop  offset="0.1653" style="stop-color:#1E1E1E"/>
			<stop  offset="0.2801" style="stop-color:#0D0D0D"/>
			<stop  offset="0.4066" style="stop-color:#030303"/>
			<stop  offset="0.5676" style="stop-color:#000000"/>
		</radialGradient>
		<circle class="st31" cx="287.5" cy="296.2" r="19.2"/>
		<circle class="st16" cx="288" cy="295.3" r="9"/>
		<circle class="st48" cx="288" cy="295.3" r="5.7"/>
		<path class="st56" d="M2.9,144.1c0,0,11.8-23.7,17.8-30.5l-11.4-2.4c0,0-5,8-8.4,32.1L2.9,144.1z"/>
		<path class="st60" d="M700.6,251.3c-1.6,0-3.2,0.1-4.7,0.1l-299.6,8.8l0,0l-97.5,2.9c-26.7,1.2-43,16.9-38.8,35.3
			c3.8,16.4,11.8,22.6,86.1,47.1c19.8,6.5,68,23.9,93.3,30c62.7,15.1,107.6,33.6,261.2,39.1c48.8,1.7,84.4-33.3,84.4-79.6
			S747.2,251.3,700.6,251.3z"/>
	</g>
</g>
</svg>
